<?xml version="1.0" standalone="no"?>
<!DOCTYPE svg PUBLIC "-//W3C//DTD SVG 1.1//EN" "http://www.w3.org/Graphics/SVG/1.1/DTD/svg11.dtd">
<svg xmlns="http://www.w3.org/2000/svg">
<metadata>Generated by Fontastic.me</metadata>
<defs>
<font id="untitled-font-1" horiz-adv-x="512">
<font-face font-family="untitled-font-1" units-per-em="512" ascent="480" descent="-32"/>
<missing-glyph horiz-adv-x="512" />

<glyph unicode="&#97;" d="m233 0c-37 0-71 5-100 16c-29 10-54 25-73 45c-20 19-35 44-46 72c-10 29-16 62-16 98c0 26 3 51 9 74c5 23 13 45 24 65c10 20 23 38 38 54c15 17 32 31 51 42c19 12 41 21 64 27c23 6 48 9 74 9c33 0 63-5 90-15c27-10 50-25 70-44c19-19 35-43 46-70c10-28 16-59 16-94c0-19-2-38-7-57c-4-19-11-36-20-50c-10-15-21-26-34-35c-13-9-29-13-47-13c-7 0-14 1-20 3c-6 1-12 4-17 7c-5 3-9 7-13 11c-4 4-6 9-8 13l-3 7l-12 0l-8-4c-4-5-8-10-13-14c-5-5-10-9-16-12c-6-3-13-6-20-8c-7-2-15-3-23-3c-16 0-30 3-43 8c-12 6-22 13-31 23c-8 10-15 23-19 37c-5 14-7 31-7 49c0 20 3 40 9 57c6 17 15 31 26 44c12 12 26 21 42 28c16 7 35 10 55 10c10 0 19 0 29-1c10-1 20-3 29-4c9-2 18-4 26-6c5-1 9-2 13-4l-6-126c-1-4-1-9-1-14l0-9c0-10 1-18 2-24c2-8 5-13 8-17c3-5 7-9 12-11c4-2 8-3 13-3c10 0 19 4 27 12c7 7 12 16 16 27c4 11 7 23 9 37c2 13 3 28 3 43c0 28-4 54-13 77c-8 22-21 42-36 58c-15 15-34 27-55 36c-21 8-44 12-69 12c-34 0-64-6-90-17c-26-12-48-28-66-49c-18-20-31-45-40-73c-9-27-14-58-14-91c0-30 4-57 12-81c8-24 20-45 36-61c15-17 35-30 58-38c23-9 49-13 78-13c13 0 25 1 38 2c13 2 26 4 39 7c12 2 25 5 37 9c8 2 15 4 21 7l0-39c-17-8-37-14-58-18c-24-6-49-8-76-8m18 343c-14 0-27-3-37-9c-10-7-18-15-25-25c-6-10-10-21-13-33c-3-12-4-25-4-37c0-26 5-45 14-58c11-13 24-20 41-20c11 0 21 3 29 8c8 5 15 13 20 22c4 8 8 18 10 30c3 11 4 23 5 37l4 79l-8 2c-5 1-10 2-17 3c-6 1-12 1-19 1"/>
<glyph unicode="&#98;" d="m448 352l-32 0l0-32c0-49-47-96-96-96l-147 0l-45-45l0-19c0-32 32-64 64-64l160 0l96-96l0 96c32 0 64 32 64 64l0 128c0 32-32 64-64 64m-288-96l160 0c32 0 64 32 64 64l0 128c0 32-32 64-64 64l-256 0c-32 0-64-32-64-64l0-128c0-32 32-64 64-64l0-96z"/>
<glyph unicode="&#99;" d="m384 320c0 0-23-1-78-32l-4 5c2 42 6 92 18 123c-7-4-32-25-62-47c-15 36-20 105-2 143c-141-101-224-245-224-336c0-70-10-176 160-176c265 0 128 192 192 320m-173-270c-192-5-69 182-89 144c-3-5-17-49 51-85c-34 42 27 92 49 115c0-59 24-115 24-115c0 0 39 23 67 105c24-105 5-160-102-164"/>
<glyph unicode="&#100;" d="m0 512l64-448l192-64l192 64l64 448z m416-128l-128-64l115 0l-19-192l-128-32l-128 32l-10 96l74 0l7-48l57-16l64 16l8 80l-213 0l-4 45l37 19l129 64l-175 0l-6 64l320 0z"/>
<glyph unicode="&#101;" d="m0 512l64-448l192-64l192 64l64 448z m410-128l-223 0l5-64l211 0l-19-192l-128-32l-128 32l-10 96l74 0l7-48l57-16l64 16l8 80l-213 0l-19 192l320 0z"/>
<glyph unicode="&#102;" d="m69 137c-38 0-69-31-69-69c0-37 31-68 69-68c38 0 68 31 68 68c0 38-30 69-68 69z m-64 199l0-90c64-1 124-26 169-72c45-46 71-106 72-170l90 0c-2 182-150 330-331 332z m0 176l0-90c229-2 414-189 417-418l90 0c-3 279-229 506-507 508z"/>
<glyph unicode="&#103;" d="m0 224l160-32l0-192l0 0l135 120l153-120l0 0l64 512z m256-32l-64-96l0 96l256 256z"/>
<glyph unicode="&#105;" d="m448 512l-224 0l-160-256l160 0l-128-256l320 320l-160 0z"/>
<glyph unicode="&#106;" d="m452 429l-23 23c-37 37-98 37-135 0l-68-67c28 11 59 9 85-6l28 28c12 12 32 12 45 0l23-23c12-12 12-33 0-45l-136-136c-13-13-33-13-45 0l-19 19l-47-44l20-20c38-38 99-38 136 0l136 136c37 37 37 98 0 135z m-283-327l-27-27c-13-13-33-13-46 0l-22 23c-13 12-13 32 0 45l135 136c13 12 33 12 46 0l18-19l47 44l-20 20c-38 37-98 37-136 0l-136-136c-37-37-37-98 0-136l23-22c37-38 98-38 136 0l67 67c-28-11-59-9-85 5z"/>
<glyph unicode="&#108;" d="m384 512l-256 0c-35 0-64-29-64-64l0-384c0-35 29-64 64-64l256 0c35 0 64 29 64 64l0 384c0 35-29 64-64 64z m-256-64l256 0l0-224l-256 0z m128-352l-32 0l0-32l-32 0l0 32l-32 0l0 32l32 0l0 32l32 0l0-32l32 0z m80-48c-18 0-32 14-32 32c0 18 14 32 32 32c18 0 32-14 32-32c0-18-14-32-32-32z m32 64c-18 0-32 14-32 32c0 18 14 32 32 32c18 0 32-14 32-32c0-18-14-32-32-32z"/>
<glyph unicode="&#109;" d="m464 512l-416 0c-26 0-48-22-48-48l0-320c0-26 22-48 48-48l144 0l0-56c0-4-4-8-8-8l-80 0c-4 0-8-4-8-8l0-16c0-4 4-8 8-8l304 0c4 0 8 4 8 8l0 16c0 4-4 8-8 8l-80 0c-4 0-8 4-8 8l0 56l144 0c26 0 48 22 48 48l0 320c0 26-22 48-48 48z m-208-384c-9 0-16 7-16 16c0 9 7 16 16 16c9 0 16-7 16-16c0-9-7-16-16-16z m224 64l-448 0l0 272c0 9 7 16 16 16l416 0c9 0 16-7 16-16z"/>
<glyph unicode="&#110;" d="m416 512l-320 0c-35 0-64-29-64-64l0-384c0-35 29-64 64-64l320 0c35 0 64 29 64 64l0 384c0 35-29 64-64 64z m-128-480l-64 0l0 32l64 0z m128 64l-320 0l0 352l320 0z"/>
<glyph unicode="&#111;" d="m352 512l-224 0c-35 0-64-29-64-64l0-384c0-35 29-64 64-64l224 0c35 0 64 29 64 64l0 384c0 35-29 64-64 64z m-160-32l96 0c9 0 16-7 16-16c0-9-7-16-16-16l-96 0c-9 0-16 7-16 16c0 9 7 16 16 16z m48-457c-14 0-25 11-25 25c0 14 11 25 25 25c14 0 25-11 25-25c0-14-11-25-25-25z m112 73l-224 0l0 320l224 0z"/>
<glyph unicode="&#107;" d="m512 96l0 384l-512 0l0-384l192 0l0-64l-128 0l0-32l384 0l0 32l-128 0l0 64z m-480 32l0 320l448 0l0-320z"/>
<glyph unicode="&#112;" d="m64 128l384 0c18 0 32 14 32 32l0 256c0 18-14 32-32 32l-384 0c-18 0-32-14-32-32l0-256c0-18 14-32 32-32z m0 288l384 0l0-256l-384 0z m432-320l-208 0l0-32l-64 0l0 32l-208 0c-9 0-13-6-9-14l18-36c4-8 14-14 23-14l416 0c9 0 19 6 23 14l18 36c4 8 0 14-9 14z"/>
<glyph unicode="&#113;" d="m160 16c0-9 7-16 16-16l192 0c9 0 16 7 16 16l0 16l-224 0z m224 243l32 221c0 17-14 32-31 32l-2 0c-17 0-31-15-31-32l-32-160c0 18-14 32-32 32c-18 0-32-14-32-32c0 18-14 32-32 32c-18 0-32-14-32-32l-32 160c0 17-14 32-31 32l-2 0c-17 0-31-15-31-32l27-198l32-199c2-11 12-20 24-20l186 0c11 0 22 9 25 20l23 104c4 18-1 37-12 52c-5 6-11 14-17 20z"/>
<glyph unicode="&#114;" d="m256 480c-132 0-240-107-240-240c0-133 108-240 240-240c133 0 240 107 240 240c0 133-107 240-240 240z m96-346l-1-7l-1 2c-11-9-11-34-25-40c-8-3-7 8-4 11c4 6-2 9 1 15l0 0l0 0l0 0c-3 1-6 7-6 11c4 0 5 2 5 1l5 9c1-6-7-17-4-21l0 0l3 2c0-3 0-6 1-8c-3 13 10 13 16 21c3 3 7 11 9 13l2-8z m67 156c-5 8-8 21-16 27l1-7c-4 1-7 3-9 7c-1 1 4-2 1 2c-6 0-10 6-15 10c-9 1-19-7-28-2c-2 2-4 9-7 5l-6-2c-11 3-15 12-24 12c0-4 7-9 10-11c4-2 7-13 7-4c6-3 2-10 10-8c6-2 5 8 6 11l5-8c3-3 8-1 11-5c3-4 6-9 5-14c-4 0-1-4-3-8c-3-4-3-5-4-9c-4-1-9-2-9-8c-3-4-29-23-33-18c-4 7-5 16-8 23c-6 2-17 15-19 20c2 9-22 26-26 27c3-13 14-19 19-28c4-9 11-27 17-30c11 1 17-18 23-22c7-5 22 11 29 10c0-9 0-11-3-21c-5-19-14-28-25-44c-7-9-11-15-16-25c-4-8 7-25 4-29c2-13-1-21-13-27c-8-5-15-9-12-18c3-9-8-11-10-16c-3-8-8-12-14-15c-3-1-7-1-11-1c-7 0-14 1-21 1c-9 12-18 24-28 35c-6 7-14 19-5 28c1 5-6 18-9 23c-5 9-28 27-19 37c1 6-4 12-4 18c-5 4-10-6-15 3c-5 9-15 6-22 1l-25-3c-17 15-22 37-16 57c2 8 2 23 9 28c2 8 12 17 17 24c3 3 7 4 10 8c5 5 8 12 14 17c6 5 20 14 8 15c5 7 12 14 15 22c4 4 11 2 15 4c4 8 6 8 4 13c1 3 11 6 13 6c4 2 8 6 12 8c15 5 31 7 47 7c87 0 160-64 174-148c-4 8-8 17-11 22z m-166 105l2 2c-6-2-2 4-8-2c2-5-4-8-2-13c6-4 11 3 17 4c0-3 11-3 13-3c-3 0 1 0 0 0c10 6-22 12-22 12z m16-28c-4-3-25-5-25-3c1 3-2 3-4 6c4 5-3 3 1 8l-6 0c-1-3 1-2-3-1c-2-4 3-7 3-10l-2 1c-1-3-1-2-1-6c-7 1-3 6-9 14c6 5-11 13-9 16c-12-3 9-16 6-19c-5 4-1-1-5-5c-5-5-4-7-12-4c0 6 14 1 8 12c-4 6-7 12-13 8c-6-4-16-6-21-14l-21-19c7-6 36 17 43 10c-1-4-6-8-6-13l5-3c9 2 7-5 14-7c12-2 3 0 10 7c2 2 15 2 16-2c0 3 5 1 0 0c6 1 11-5 16 0c3 3 5 2 7 0c11-7 7 22 8 24z m-71 2l-4-1c1 3 6 14 8 14c0-4-3-9-4-13z m93 27l3 3c-2 8-10 1-10-4c3-3 16-10 16-13c-3-1 1-10 6-9c3-3 6-4 10-2c-1 7-19 22-25 25z m24-1c-3 0-6 7-9 8l-1-3c1-2 6-9 10-5z m-132-11l-3-2l0 0z"/>
<glyph unicode="&#115;" d="m448 512l-384 0c-35 0-64-29-64-64l0-384c0-35 29-64 64-64l384 0c35 0 64 29 64 64l0 384c0 35-29 64-64 64z m32-448c0-18-14-32-32-32l-384 0c-18 0-32 14-32 32l0 288l448 0z m0 320l-448 0l0 64c0 18 14 32 32 32l384 0c18 0 32-14 32-32z m-376 72c-13 0-24-11-24-24c0-13 11-24 24-24c13 0 24 11 24 24c0 13-11 24-24 24z m64 0c-13 0-24-11-24-24c0-13 11-24 24-24c13 0 24 11 24 24c0 13-11 24-24 24z m64 0c-13 0-24-11-24-24c0-13 11-24 24-24c13 0 24 11 24 24c0 13-11 24-24 24z m-81-351l75 76l-75 75l-23-23l53-52l-53-53z m116 108l96 0l0-32l-96 0z"/>
<glyph unicode="&#116;" d="m260 464c-121 0-220-98-220-220c0-121 99-220 220-220c122 0 220 99 220 220c0 122-98 220-220 220z m0-376c-86 0-156 70-156 156c0 86 70 156 156 156c86 0 156-70 156-156c0-86-70-156-156-156z m93 125l-74 59l0 56c0 9-7 16-16 16c-9 0-16-7-16-16l0-64l0-1l1-3l1-3l1-2l3-3l0 0l80-64c3-3 7-4 10-4c5 0 9 2 13 6c5 7 4 17-3 23z"/>
<glyph unicode="&#117;" d="m160 320l64 0l0-64l-64 0z m96 0l64 0l0-64l-64 0z m96 0l64 0l0-64l-64 0z m-288-96l64 0l0-64l-64 0z m96 0l64 0l0-64l-64 0z m96 0l64 0l0-64l-64 0z m96 0l64 0l0-64l-64 0z m-288-96l64 0l0-64l-64 0z m96 0l64 0l0-64l-64 0z m96 0l64 0l0-64l-64 0z m160 320l0 48c0 9-7 16-16 16l-64 0c-9 0-16-7-16-16l0-48l-160 0l0 48c0 9-7 16-16 16l-64 0c-9 0-16-7-16-16l0-48l-64 0l0-448l480 0l0 448z m-64 32l32 0l0-64l-32 0z m-256 0l32 0l0-64l-32 0z m352-448l-416 0l0 320l416 0z"/>
<glyph unicode="&#120;" d="m152 387l-74 0l93 94l0-76z m265 37c-8 14-50 30-71 30c-22 0-56 0-56 0c0 0-18 32-60 32c-42 0-39-18-39-34l0-65l-19-20l-88 0c0 0-25-17-25-52c0-36 11-159 85-171c87-13 102 27 102 32c0 21 1 52 1 52c0 0 25-49 64-49c39 0 61-22 61-45c0-23 0-42 0-42c0 0-1-27-24-27c-23 0-49 0-49 0c0 0-15 13-15 30c0 17 7 22 16 22c10 0 17-1 17-1l0 36c0 0-73 0-73-56c0-56 38-70 69-70c30 0 50 0 50 0c0 0 90 11 90 190c0 178-28 195-36 208z m-90-159c0 0 5 29 22 29c17 0 40-39 40-39c0 0-53 10-62 10z"/>
<glyph unicode="&#121;" d="m362 435c6-14 10-36 4-53c24-20 32-69 21-109c33-3 73 1 99-9c-24 3-57 9-88 7c-6-1-15 0-15-8c37-3 73-6 102-16c-29 5-65 13-102 14c-15-30-45-45-87-48c4-10 13-14 15-29c3-24-5-59 3-74c4-8 10-8 14-15c-10-12-35 2-38 15c-5 22 7 56-6 71c1-24-6-58 1-80c2-8 10-11 8-19c-48-5-28 62-36 102c-7-1-4-11-4-16c0-38 8-91-34-86c-1 8 6 11 8 18c8 22-1 54 3 81c-16-12 1-54-9-76c-5-12-24-17-37-12c1 9 11 8 15 17c6 11 0 29 2 46c-29-6-52 1-63 19c-5 9-6 18-13 26c-5 7-15 8-18 18c36 9 38-37 71-38c10-1 15 2 24 5c3 11 8 20 16 26c-40 6-74 18-89 49c-37-2-71-7-102-15c28 11 63 14 101 16c-3 13-22 9-34 9c-22-1-51-4-68-7c25 9 62 8 96 8c-10 33-7 86 17 106c-7 17-5 44 4 57c26-1 42-12 58-23c20 5 42 8 69 7c12-1 24-6 33-5c9 1 18 10 26 14c11 5 21 7 33 7z"/>
<glyph unicode="&#118;" d="m404 184c1 6 2 13 2 20c1 87-47 121-96 149c14-75-33-122-91-106c85 139-38 139-1 239c-58-41-116-156-116-240c1-22 3-43 7-62c-42-17-68-40-68-67c0-50 97-91 215-91c118 0 215 41 215 91c0 26-26 50-67 67z m-230 110c-16-73 27-127 68-127c47 0 74 43 88 100c25-19 37-45 39-72c0 0 0 0 0 0c2-30-11-61-37-83c0 0 0 0 0-1c-6-4-12-8-19-12c0 0-1-1-2-1c-2-1-5-3-8-4c-1 0-2-1-2-1c-8-3-15-5-23-7c-2 0-3 0-4-1c-3 0-6-1-9-1c-2 0-3 0-4-1c-5 0-9 0-14 0c-3 0-6 0-9 0c-1 0-2 0-3 0c-3 0-5 1-8 1c0 0-1 0-1 0c-4 1-7 2-10 2c0 1-1 1-1 1c-3 1-6 2-9 3c0 0 0 0-1 0c-38 15-66 53-64 105c0 0-1-1-1-1c1 29 11 63 34 100z"/>
<glyph unicode="&#122;" d="m256 486c-127 0-230-103-230-230c0-127 103-230 230-230c127 0 230 103 230 230c0 127-103 230-230 230z m124-301c-18 0-35 36-35 36c0 0-26 88-142 106c10-160-49-140-71-142c-22-1-35 31-35 71c0 88 71 159 159 159c88 0 157-71 159-159c1-18-17-71-35-71z"/>
<glyph unicode="&#65;" d="m130 130c11-11 18-26 18-43c0-17-7-32-18-43l0 0c-11-11-26-18-43-18c-17 0-32 7-43 18c-12 11-18 26-18 43c0 17 6 32 18 43l0 0c11 11 26 18 43 18c17 0 32-7 43-18z m0 0l0 0c0 0 0 0 0 0z m-86-86c0 0 0 0 0 0c0 0 0 0 0 0z m-18 286l0-88c57 0 111-23 152-64c41-40 63-95 63-152l0 0l0 0l89 0c0 83-34 159-90 214c-55 56-131 90-214 90z m0 156l0-88c205 0 372-167 372-372l88 0c0 127-51 242-135 325c-83 84-198 135-325 135z"/>
<glyph unicode="&#66;" d="m188 256c0-2 0-3 0-5l165-82c14 12 32 19 52 19c45 0 81-36 81-81c0-45-36-81-81-81c-45 0-81 36-81 81c0 2 0 3 0 5l-165 82c-14-12-32-19-52-19c-45 0-81 36-81 81c0 45 36 81 81 81c20 0 38-7 52-19l165 82c0 2 0 4 0 5c0 45 36 81 81 81c45 0 81-36 81-81c0-45-36-81-81-81c-20 0-38 7-52 19l-165-82c0-2 0-3 0-5z"/>
<glyph unicode="&#67;" d="m26 210c0-16 7-30 18-39l0 78c-11-10-18-24-18-39m37 49l0-98c5-2 10-2 15-2l5 0l0 102c-2 0-4 0-5 0c-5 0-10-1-15-2m43-6c-1 0-3 1-4 2l0-96l19 0l0 128c-8-10-13-22-15-34m34 52l0-146l20 0l0 156c-7-2-14-6-20-10m39 14l0-160l19 0l0 159c-4 1-8 1-12 1c-2 0-5 0-7 0m49-11c-6 3-13 6-20 8l0-157l29 0l0 160c-3-3-6-7-9-11m19 21l0-170l183 0l0 0c39 2 56 26 56 56c0 31-23 56-54 56c-8 0-15-2-22-5c-5 49-47 87-98 87c-25 0-48-9-65-24"/>
<glyph unicode="&#68;" d="m452 313c0-24-19-43-43-43c-23 0-42 19-42 43c0 23 19 42 42 42c24 0 43-19 43-42z m-17-72l-52-44c1-4 1-7 1-11c0-37-30-68-68-68c-32 0-60 23-66 53l-128 43c-10-7-23-12-36-12c-33 0-60 27-60 60c0 33 27 60 60 60c28 0 52-20 58-47l123-41c13 12 29 19 47 20l19 56c0 1 0 2 0 3c0 42 34 77 77 77c42 0 76-35 76-77c0-33-21-62-51-72z m-312 41c-7 13-21 22-36 22c-24 0-42-19-42-42c0-23 18-42 42-42c4 0 8 1 12 2l-20 7c-16 8-22 28-14 44c9 16 29 22 45 14z m227 31c0-33 26-60 59-60c33 0 60 27 60 60c0 33-27 59-60 59c-33 0-59-26-59-59z m1-133c0 25-21 45-46 45c-3 0-7 0-10-1l26-8c16-9 22-29 13-45c-9-16-29-22-45-13l-27 9c6-19 23-32 43-32c25 0 46 20 46 45z"/>
<glyph unicode="&#69;" d="m256 486c-127 0-230-103-230-230c0-127 103-230 230-230c127 0 230 103 230 230c0 127-103 230-230 230z m0-414c-102 0-184 82-184 184c0 102 82 184 184 184c102 0 184-82 184-184c0-102-82-184-184-184z m84 122c2-19-13-37-33-40c-19-2-36 12-38 31c-1 20 14 38 33 40c6 1 12 0 18-2l0 96l-93-17l0-120l0 0c0 0 0-1 0-1c2-20-13-37-32-40c-20-2-37 12-39 31c-1 20 13 38 33 40c6 1 12 0 18-2l0 138l133 23l0 0l0 0l0 0l0 0l0-176l0 0c0 0 0 0 0-1z"/>
<glyph unicode="&#70;" d="m399 303l-137 84l87 72l137-85z m-51-159l132 78l-80 67l-129-78z m-107 67l-129 78l-80-67l132-78z m-123-56l0-25l132-81l0 154l-87-72z m276 0l-45-24l-87 72l0-154l132 81z m-144 232l-86 72l-138-85l87-71z"/>
<glyph unicode="&#72;" d="m416 416l32 64l-384 0l32-64l-96 0l0-80c0-30 0-98 109-110c20-48 63-84 115-95l0-35c0-64-128-64-160-64l0-32l384 0l0 32c-32 0-160 0-160 64l0 35c52 11 95 47 116 95c108 12 108 80 108 110l0 80z m-320-156c-64 12-64 50-64 76l0 48l64 0z m207 33l25-86l-73 51l-73-51l26 86l-71 53l89 2l29 84l30-84l89-2z m177 43c0-26 0-64-64-76l0 124l64 0z"/>
<glyph unicode="&#104;" d="m179 220c-25 0-45 20-45 45c0 25 20 45 45 45c12 0 24-4 32-13l28 28c-16 16-37 24-60 24c-46 0-84-37-84-84c0-47 38-84 84-84c23 0 44 8 60 24l-28 28c-8-9-20-13-32-13z m177 0c-25 0-45 20-45 45c0 25 20 45 45 45c12 0 24-4 32-13l28 28c-16 16-37 24-60 24c-46 0-84-37-84-84c0-47 38-84 84-84c23 0 44 8 60 24l-28 28c-8-9-20-13-32-13z m-100 292c-141 0-256-115-256-256c0-141 115-256 256-256c141 0 256 115 256 256c0 141-115 256-256 256z m0-480c-123 0-224 101-224 224c0 123 101 224 224 224c124 0 224-101 224-224c0-123-100-224-224-224z"/>
<glyph unicode="&#119;" d="m256 192c35 0 64 29 64 64l0 192c0 35-29 64-64 64c-35 0-64-29-64-64l0-192c0-35 29-64 64-64z m160 64l0 64l-32 0l0-64c0-71-57-128-128-128c-71 0-128 57-128 128l0 64l-32 0l0-64c0-77 55-142 128-157l0-35l-96-32l0-32l256 0l0 32l-96 32l0 35c73 15 128 80 128 157z"/>
<glyph unicode="&#71;" d="m160 421l0-273c-10 3-21 5-32 5c-53 0-96-34-96-77c0-39 37-72 85-76l22 0c27 3 51 14 67 31c11 13 18 28 18 45l0 230l192 55l0-149c-10 3-21 5-32 5c-53 0-96-34-96-77c0-42 43-77 96-77c32 0 60 13 78 32c11 13 18 29 18 45l0 372z"/>
<glyph unicode="&#73;" d="m256 512c-106 0-192-86-192-192c0-128 192-320 192-320c0 0 192 192 192 320c0 106-86 192-192 192z m0-320c-71 0-128 57-128 128c0 71 57 128 128 128c71 0 128-57 128-128c0-71-57-128-128-128z m-96 160l192 0l0-64l-192 0z"/>
<glyph unicode="&#74;" d="m448 320l64 64l-64 64l-160 0l0 64l-64 0l0-64l-128 0l0-128l128 0l0-32l-160 0l-64-64l64-64l160 0l0-160l64 0l0 160l128 0l0 128l-128 0l0 32z"/>
<glyph unicode="&#75;" d="m454 287l-67 0c-4 12-9 25-16 36l44 44c11 11 11 28 0 38l-19 19c-10 10-27 10-37 0l-46-45c-12 7-25 12-39 16l0 58c0 15-12 27-27 27l-26 0c-15 0-27-12-27-27l0-58c-15-4-30-10-43-18l-38 37c-10 11-27 11-37 0l-19-18c-11-11-10-28 0-38l38-39c-8-14-14-29-17-46l-51 0c-14 0-26-12-26-26l0-27c0-15 12-27 26-27l54 0c5-16 12-31 22-44l-37-36c-10-11-10-28 0-38l19-19c11-10 27-10 38 0l40 41c14-7 29-12 44-15l0-55c0-15 12-27 27-27l27 0c14 0 26 12 26 27l0 62c14 5 26 11 38 20l43-43c10-11 27-11 38 0l19 18c10 11 10 28-1 38l-47 47c6 12 11 25 13 38l64 0c15 0 27 12 27 26l0 27c0 15-12 27-27 27z m-220-114c-37 0-67 30-67 67c0 37 30 67 67 67c37 0 67-30 67-67c0-37-30-67-67-67z"/>
<glyph unicode="&#76;" d="m476 371c-6 3-12 1-17-3l-55-55l-73 72l-17 18l54 55c5 5 6 12 4 18c-3 6-9 10-15 10c-32-1-64-13-89-37c-38-39-47-96-26-144l-200-173l-23-23c-25-25-25-65 0-90c13-13 29-19 45-19l1 0c16 0 32 6 45 19l22 22l174 201c47-21 105-13 143 26c25 24 37 56 37 88c0 7-4 13-10 15z m-389-330c-12-12-33-12-45 0c-13 13-13 33 0 46c12 12 33 12 45 0c13-13 13-33 0-46z"/>
<glyph unicode="&#77;" d="m503 385l-46 45c-12 12-32 12-45 0l-217-226l-82 82c-12 13-33 13-45 0l-45-45c-13-12-13-33 0-45l150-150c12-13 32-13 45 0l68 68l217 225c6 7 9 15 9 23l0 0c0 8-3 16-9 23z"/>
<glyph unicode="&#78;" d="m439 149l-102 102l102 102c12 12 12 33 0 45l-46 45c-12 13-32 13-45 0l-102-102l-102 102c-12 13-32 13-45 0l-45-45c-12-12-12-33 0-45l102-102l-102-102c-12-12-12-33 0-45l45-45c13-13 33-13 46 0l101 101l102-101c13-13 33-13 45 0l46 45c12 12 12 33 0 45z"/>
<glyph unicode="&#79;" d="m240 64c-56 0-106 27-138 68l90 60l-126 25l-33 7l-1 0l-32-160l75 50c38-50 98-82 165-82c110 0 199 85 207 192l-32 0c-8-90-83-160-175-160z m164 302c-38 50-97 82-165 82c-109 0-199-85-207-192l32 0c8 90 84 160 175 160c56 0 106-27 139-68l-91-60l126-25l33-7l1 0l32 160z"/>
<glyph unicode="&#80;" d="m280 451c16 20 44 34 67 35c3-27-8-54-24-73c-16-20-42-35-68-33c-3 27 10 54 25 71z m131-368c-19-28-39-56-70-57c-31 0-41 19-76 19c-35 0-46-18-75-19c-30-2-53 30-73 58c-39 57-69 162-29 232c20 35 56 57 95 58c30 0 58-20 76-20c18 0 52 25 88 21c15-1 57-6 84-46c-2-1-50-29-50-87c1-70 61-93 62-94c-1-1-10-33-32-65z"/>
<glyph unicode="&#81;" d="m258 256c0 45 30 71 67 71c26 0 48-9 61-33l-30-16c-7 16-20 19-26 19c-23 0-31-18-31-41c0-23 10-41 31-41c12 0 22 5 29 20l28-14c-12-22-34-36-60-36c-41 0-69 25-69 71z m-64-71c26 0 48 14 60 36l-29 14c-6-15-16-20-28-20c-21 0-31 18-31 41c0 23 8 41 31 41c6 0 19-3 26-19l30 16c-13 24-35 33-61 33c-37 0-67-26-67-71c0-46 28-71 69-71z m-101-91c-44 44-67 101-67 162c0 61 24 119 68 163c43 44 98 67 162 67c63 0 120-23 164-67c44-44 66-101 66-163c0-63-22-119-65-162c-46-44-105-68-165-68c-61 0-119 24-163 68z m-26 162c0-49 21-97 57-133c36-36 82-55 132-55c50 0 98 19 135 56c35 35 54 80 54 132c0 51-19 98-55 133c-36 36-82 56-134 56c-52 0-97-19-132-55c-36-37-57-84-57-134z"/>
<glyph unicode="&#82;" d="m407 486l-125 0c-32 0-73-4-108-33c-26-22-39-53-39-81c0-47 37-95 101-95c6 0 12 1 19 1c-3-7-6-13-6-23c0-19 10-30 18-41c-27-2-78-5-115-28c-36-21-47-52-47-74c0-45 42-86 130-86c104 0 159 57 159 114c0 42-24 62-50 85l-22 17c-7 5-16 12-16 26c0 13 9 21 17 29c25 20 51 41 51 86c0 46-29 70-43 82l37 0z m-53-370c0-37-31-65-89-65c-65 0-107 31-107 74c0 43 39 57 52 62c26 9 58 10 64 10c6 0 9 0 14-1c46-32 66-49 66-80z m-49 195c-9-10-26-17-41-17c-52 0-75 67-75 108c0 15 3 32 13 45c10 12 26 19 42 19c50 0 77-67 77-111c0-11-2-30-16-44z"/>
<glyph unicode="&#83;" d="m486 256c0-57-46-102-103-102c-57 0-103 45-103 102c0 57 46 102 103 102c57 0 103-45 103-102z m-357 102c-57 0-103-45-103-102c0-57 46-102 103-102c57 0 103 45 103 102c0 57-46 102-103 102z"/>
<glyph unicode="&#84;" d="m486 453l-172-176l-62 60l-26-25c-14 39-52 68-97 68c-57 0-103-45-103-100c0-55 45-99 101-100l125-121l143 139l-14 14l105 82z m-15-150l-231-182l-87 77c-8-2-16-4-25-4c-49 0-88 39-88 86c0 47 39 85 88 85c48 0 88-38 88-85c0-13-3-25-8-36l35-57l228 234z"/>
<glyph unicode="&#85;" d="m323 486l-202 0l-89-410l118 0l29 136l85 0c81 0 148 50 166 135c21 96-48 139-107 139z m-88-195l-39 0l25 112l58 0c20 0 35-12 40-29c-2 0-5 1-7 1l-58 0z m84 56c-7-31-36-55-65-56l14 61l52 0c0-1 0-3-1-5z m144-28c6 32 3 57-6 78c19-23 29-56 20-101c-19-85-86-134-167-134l-85 0l-29-136l-118 0l5 22l99 0l29 136l85 0c81 0 148 50 167 135z"/>
<glyph unicode="&#86;" d="m296 110c-7 4-14 12-17 20c-3 7-3 23-3 49l0 119l108 0l0 82l-108 0l0 106l-66 0c-3-23-8-43-16-58c-8-16-18-29-31-40c-13-11-35-19-53-25l0-65l63 0l0-162c0-21 2-37 7-48c4-11 12-22 24-32c11-9 25-17 42-22c16-6 29-8 50-8c18 0 36 1 52 5c16 4 34 10 54 20l0 72c-23-15-47-22-70-22c-14 0-25 3-36 9z"/>
<glyph unicode="&#87;" d="m486 260c0-124-101-225-226-225c-39 0-77 11-109 28l-125-39l40 120c-20 34-32 73-32 116c0 124 101 224 226 224c125 0 226-100 226-224z m-226 189c-105 0-190-85-190-189c0-41 13-80 36-111l-24-70l74 23c30-19 66-31 104-31c105 0 190 85 190 189c0 104-85 189-190 189z m114-241c-1 2-5 4-10 7c-6 2-33 16-38 17c-5 2-9 3-13-2c-3-6-14-18-17-22c-3-4-7-4-12-1c-6 3-24 8-45 27c-16 15-27 33-31 38c-3 6 0 9 3 11c2 3 5 7 8 10c3 3 4 6 6 9c2 4 1 7-1 10c-1 3-12 30-17 41c-4 11-9 9-12 9c-4 0-7 0-11 0c-4 0-10-1-15-7c-5-5-19-18-19-45c0-28 20-54 22-57c3-4 39-61 95-83c57-22 57-15 67-14c10 1 33 13 37 26c5 13 5 24 3 26z"/>
</font>
</defs>
</svg>
