<svg width="100" height="100" viewBox="0 0 100 100">
  <g fill="none" fill-rule="evenodd" transform="translate(5 5)">
    <path stroke="#11256C" stroke-linecap="round" stroke-width="5" d="M72.2834646,21.2586207 C73.7716535,12.9568966 72.9212598,6.59482759 69.3779528,4.11206897 C68.1732283,3.25862069 66.7559055,2.87068966 65.1968504,2.94827586 C56.6220472,3.3362069 42.7322835,16.2931034 31.3937008,35.3793103 C18,58.0344828 13.1811024,80.6896552 20.7637795,86.0431034 C24.3779528,88.6034483 30.0472441,86.8189655 36.496063,81.7758621"/>
    <path stroke="#11256C" stroke-linecap="round" stroke-width="5" d="M79.1574803,58.3448276 C85.5354331,55.6293103 89.4330709,51.9051724 89.6456693,47.637931 C90.1417323,37.7844828 70.5826772,28.7068966 45.9212598,27.3103448 C43.5826772,27.1551724 41.3149606,27.0775862 39.1181102,27.1551724 C17.6456693,27.2327586 0.921259843,33.6724138 0.496062992,42.5948276 C0.283464567,46.862069 3.82677165,50.9741379 9.8503937,54.387931"/>
    <path stroke="#11256C" stroke-linecap="round" stroke-width="5" d="M38.976378,6.59482759 C34.5826772,2.63793103 30.5433071,0.543103448 27.2125984,0.775862069 C26.3622047,0.853448276 25.5826772,1.0862069 24.8031496,1.55172414 C16.7952756,5.97413793 19.3464567,29.1724138 30.5433071,53.2241379 C41.7401575,77.2758621 57.3307087,93.1810345 65.3385827,88.6810345 C73.0629921,84.4137931 70.9370079,62.8448276 60.8740157,39.8017241"/>
    <path fill="#F53FC7" fill-rule="nonzero" d="M50.6692913,45.7758621 C50.6692913,48.989588 48.2897024,51.5948276 45.3543307,51.5948276 C42.418959,51.5948276 40.0393701,48.989588 40.0393701,45.7758621 C40.0393701,42.5621362 42.418959,39.9568966 45.3543307,39.9568966 C48.2897024,39.9568966 50.6692913,42.5621362 50.6692913,45.7758621 Z"/>
  </g>
</svg>
