<?xml version="1.0" encoding="utf-8"?>
<!-- Generator: Adobe Illustrator 19.2.0, SVG Export Plug-In . SVG Version: 6.00 Build 0)  -->
<svg version="1.1" id="Layer_1" xmlns="http://www.w3.org/2000/svg" xmlns:xlink="http://www.w3.org/1999/xlink" x="0px" y="0px"
	 viewBox="0 0 1764 1351" style="enable-background:new 0 0 1764 1351;" xml:space="preserve">
<style type="text/css">
	.st0{fill:#FFFFFF;}
	.st1{fill:#D15D64;}
	.st2{fill:#FCD05C;}
	.st3{fill:none;stroke:#7B63AB;stroke-width:1.097;stroke-linecap:round;stroke-linejoin:round;}
	.st4{fill:#E98333;}
	.st5{fill:none;stroke:#E98333;stroke-width:1.097;stroke-linecap:round;stroke-linejoin:round;}
	.st6{fill:#00A959;}
	.st7{fill:#7B63AB;}
	.st8{fill:none;stroke:#00A959;stroke-width:1.097;stroke-linecap:round;stroke-linejoin:round;}
	.st9{opacity:0;}
	.st10{fill:#DBE7F0;}
	.st11{fill:#27363A;}
	.st12{fill:#4D595D;}
	.st13{fill:none;stroke:#DBE7F0;stroke-width:1.097;stroke-linecap:round;stroke-linejoin:round;}
</style>
<g>
	<path id="e" class="st0" d="M1593.2,985.9v-5.6h-5.6v5.6H1593.2L1593.2,985.9z"/>
</g>
<g>
	<path id="a" class="st0" d="M1586.2,434.1v5.6h-5.6v-5.6H1586.2L1586.2,434.1z"/>
</g>
<title>star-bg</title>
<path class="st1" d="M718,92.1l2.8,1.5c0.2,0.1,0.3,0.3,0.2,0.5c0,0.1-0.1,0.1-0.2,0.2l-2.8,1.5c-0.1,0-0.1,0.1-0.2,0.2l-1.5,2.8
	c-0.1,0.2-0.3,0.3-0.5,0.2c-0.1,0-0.1-0.1-0.2-0.2l-1.5-2.8c0-0.1-0.1-0.1-0.2-0.2l-2.8-1.5c-0.2-0.1-0.3-0.3-0.2-0.5
	c0-0.1,0.1-0.1,0.2-0.2l2.8-1.5c0.1,0,0.1-0.1,0.2-0.2l1.5-2.8c0.1-0.2,0.3-0.3,0.5-0.2c0.1,0,0.1,0.1,0.2,0.2l1.5,2.8
	C717.9,92,717.9,92.1,718,92.1"/>
<path class="st2" d="M239.1,166.7l1.4,0.7c0.2,0.1,0.3,0.3,0.2,0.5c0,0.1-0.1,0.1-0.2,0.2l-1.4,0.7c-0.1,0-0.1,0.1-0.2,0.2l-0.7,1.4
	c-0.1,0.2-0.3,0.3-0.5,0.2c-0.1,0-0.1-0.1-0.2-0.2l-0.7-1.4c0-0.1-0.1-0.1-0.2-0.2l-1.4-0.7c-0.2-0.1-0.3-0.3-0.2-0.5
	c0-0.1,0.1-0.1,0.2-0.2l1.4-0.7c0.1,0,0.1-0.1,0.2-0.2l0.7-1.4c0.1-0.2,0.3-0.3,0.5-0.2c0.1,0,0.1,0.1,0.2,0.2l0.7,1.4
	C238.9,166.6,239,166.7,239.1,166.7"/>
<path class="st3" d="M409.5,108l-1.5,1.5 M413.5,104l-1.5,1.5 M409.5,108.2c0.7,0.7,1.9,0.7,2.6,0s0.7-1.9,0-2.6s-1.9-0.7-2.6,0
	C408.8,106.3,408.8,107.4,409.5,108.2L409.5,108.2z"/>
<path class="st1" d="M962,138.1l2.8,1.5c0.2,0.1,0.3,0.3,0.2,0.5c0,0.1-0.1,0.1-0.2,0.2l-2.8,1.5c-0.1,0-0.1,0.1-0.2,0.2l-1.5,2.8
	c-0.1,0.2-0.3,0.3-0.5,0.2c-0.1,0-0.1-0.1-0.2-0.2l-1.5-2.8c0-0.1-0.1-0.1-0.2-0.2l-2.8-1.5c-0.2-0.1-0.3-0.3-0.2-0.5
	c0-0.1,0.1-0.1,0.2-0.2l2.8-1.5c0.1,0,0.1-0.1,0.2-0.2l1.5-2.8c0.1-0.2,0.3-0.3,0.5-0.2c0.1,0,0.1,0.1,0.2,0.2l1.5,2.8
	C961.9,138,961.9,138.1,962,138.1"/>
<path class="st4" d="M1145,177.1l2.8,1.5c0.2,0.1,0.3,0.3,0.2,0.5c0,0.1-0.1,0.1-0.2,0.2l-2.8,1.5c-0.1,0-0.1,0.1-0.2,0.2l-1.5,2.8
	c-0.1,0.2-0.3,0.3-0.5,0.2c-0.1,0-0.1-0.1-0.2-0.2l-1.5-2.8c0-0.1-0.1-0.1-0.2-0.2l-2.8-1.5c-0.2-0.1-0.3-0.3-0.2-0.5
	c0-0.1,0.1-0.1,0.2-0.2l2.8-1.5c0.1,0,0.1-0.1,0.2-0.2l1.5-2.8c0.1-0.2,0.3-0.3,0.5-0.2c0.1,0,0.1,0.1,0.2,0.2l1.5,2.8
	C1144.9,177,1144.9,177.1,1145,177.1"/>
<path class="st2" d="M1083.1,100.7l1.4,0.7c0.2,0.1,0.3,0.3,0.2,0.5c0,0.1-0.1,0.1-0.2,0.2l-1.4,0.7c-0.1,0-0.1,0.1-0.2,0.2
	l-0.7,1.4c-0.1,0.2-0.3,0.3-0.5,0.2c-0.1,0-0.1-0.1-0.2-0.2l-0.7-1.4c0-0.1-0.1-0.1-0.2-0.2l-1.4-0.7c-0.2-0.1-0.3-0.3-0.2-0.5
	c0-0.1,0.1-0.1,0.2-0.2l1.4-0.7c0.1,0,0.1-0.1,0.2-0.2l0.7-1.4c0.1-0.2,0.3-0.3,0.5-0.2c0.1,0,0.1,0.1,0.2,0.2l0.7,1.4
	C1082.9,100.6,1083,100.7,1083.1,100.7"/>
<path class="st1" d="M1206.8,253.9c0,1.6-1.3,2.9-2.9,2.9s-2.9-1.3-2.9-2.9s1.3-2.9,2.9-2.9S1206.8,252.3,1206.8,253.9 M115,319.1
	l2.8,1.5c0.2,0.1,0.3,0.3,0.2,0.5c0,0.1-0.1,0.1-0.2,0.2l-2.8,1.5c-0.1,0-0.1,0.1-0.2,0.2l-1.5,2.8c-0.1,0.2-0.3,0.3-0.5,0.2
	c-0.1,0-0.1-0.1-0.2-0.2l-1.5-2.8c0-0.1-0.1-0.1-0.2-0.2l-2.8-1.5c-0.2-0.1-0.3-0.3-0.2-0.5c0-0.1,0.1-0.1,0.2-0.2l2.8-1.5
	c0.1,0,0.1-0.1,0.2-0.2l1.5-2.8c0.1-0.2,0.3-0.3,0.5-0.2c0.1,0,0.1,0.1,0.2,0.2l1.5,2.8C114.9,319,114.9,319.1,115,319.1"/>
<path class="st2" d="M206.1,452.7l1.4,0.7c0.2,0.1,0.3,0.3,0.2,0.5c0,0.1-0.1,0.1-0.2,0.2l-1.4,0.7c-0.1,0-0.1,0.1-0.2,0.2l-0.7,1.4
	c-0.1,0.2-0.3,0.3-0.5,0.2c-0.1,0-0.1-0.1-0.2-0.2l-0.7-1.4c0-0.1-0.1-0.1-0.2-0.2l-1.4-0.7c-0.2-0.1-0.3-0.3-0.2-0.5
	c0-0.1,0.1-0.1,0.2-0.2l1.4-0.7c0.1,0,0.1-0.1,0.2-0.2l0.7-1.4c0.1-0.2,0.3-0.3,0.5-0.2c0.1,0,0.1,0.1,0.2,0.2l0.7,1.4
	C205.9,452.6,206,452.7,206.1,452.7"/>
<path class="st1" d="M1662,527.1l2.8,1.5c0.2,0.1,0.3,0.3,0.2,0.5c0,0.1-0.1,0.1-0.2,0.2l-2.8,1.5c-0.1,0-0.1,0.1-0.2,0.2l-1.5,2.8
	c-0.1,0.2-0.3,0.3-0.5,0.2c-0.1,0-0.1-0.1-0.2-0.2l-1.5-2.8c0-0.1-0.1-0.1-0.2-0.2l-2.8-1.5c-0.2-0.1-0.3-0.3-0.2-0.5
	c0-0.1,0.1-0.1,0.2-0.2l2.8-1.5c0.1,0,0.1-0.1,0.2-0.2l1.5-2.8c0.1-0.2,0.3-0.3,0.5-0.2c0.1,0,0.1,0.1,0.2,0.2l1.5,2.8
	C1661.9,527,1661.9,527.1,1662,527.1 M1376.9,100.6l1.3,0.7c0.3,0.1,0.3,0.5,0,0.7l-1.3,0.7c-0.1,0-0.1,0.1-0.2,0.1l-0.7,1.3
	c-0.1,0.2-0.3,0.2-0.5,0.1c-0.1,0-0.1-0.1-0.1-0.1l-0.7-1.3c0-0.1-0.1-0.1-0.2-0.1l-1.3-0.7c-0.2-0.1-0.2-0.3-0.1-0.5
	c0-0.1,0.1-0.1,0.1-0.1l1.3-0.7c0.1,0,0.1-0.1,0.2-0.2l0.7-1.3c0.1-0.2,0.3-0.3,0.5-0.2c0.1,0,0.1,0.1,0.2,0.2L1376.9,100.6
	C1376.8,100.6,1376.8,100.6,1376.9,100.6"/>
<path class="st2" d="M1634.1,382.7l1.4,0.7c0.2,0.1,0.3,0.3,0.2,0.5c0,0.1-0.1,0.1-0.2,0.2l-1.4,0.7c-0.1,0-0.1,0.1-0.2,0.2
	l-0.7,1.4c-0.1,0.2-0.3,0.3-0.5,0.2c-0.1,0-0.1-0.1-0.2-0.2l-0.7-1.4c0-0.1-0.1-0.1-0.2-0.2l-1.4-0.7c-0.2-0.1-0.3-0.3-0.2-0.5
	c0-0.1,0.1-0.1,0.2-0.2l1.4-0.7c0.1,0,0.1-0.1,0.2-0.2l0.7-1.4c0.1-0.2,0.3-0.3,0.5-0.2c0.1,0,0.1,0.1,0.2,0.2l0.7,1.4
	C1633.9,382.6,1634,382.7,1634.1,382.7"/>
<path class="st5" d="M411,385.9l3.6-0.9l-0.9,3.6L411,385.9z"/>
<path class="st6" d="M522.2,503l2,1.1l-2,1.1l-1.1,2l-1.1-2l-2-1.1l2-1.1l1.1-2L522.2,503z"/>
<path class="st4" d="M531,40.1l2.8,1.5c0.2,0.1,0.3,0.3,0.2,0.5c0,0.1-0.1,0.1-0.2,0.2l-2.8,1.5c-0.1,0-0.1,0.1-0.2,0.2l-1.5,2.8
	c-0.1,0.2-0.3,0.3-0.5,0.2c-0.1,0-0.1-0.1-0.2-0.2l-1.5-2.8c0-0.1-0.1-0.1-0.2-0.2l-2.8-1.5c-0.2-0.1-0.3-0.3-0.2-0.5
	c0-0.1,0.1-0.1,0.2-0.2l2.8-1.5c0.1,0,0.1-0.1,0.2-0.2l1.5-2.8c0.1-0.2,0.3-0.3,0.5-0.2c0.1,0,0.1,0.1,0.2,0.2l1.5,2.8
	C530.9,40,530.9,40.1,531,40.1"/>
<path class="st3" d="M653.9,202.3l-0.8-1.6c0-0.1-0.1-0.1-0.2-0.2l-1.6-0.8c-0.2-0.1-0.3-0.4-0.2-0.6c0-0.1,0.1-0.1,0.2-0.2l1.6-0.8
	c0.1,0,0.1-0.1,0.2-0.2l0.8-1.6c0.1-0.2,0.4-0.3,0.6-0.2c0.1,0,0.1,0.1,0.2,0.2l0.8,1.6c0,0.1,0.1,0.1,0.2,0.2l1.6,0.8
	c0.3,0.2,0.3,0.6,0,0.8l-1.6,0.8c-0.1,0-0.1,0.1-0.2,0.2l-0.8,1.6c-0.1,0.2-0.4,0.3-0.6,0.2C654,202.4,653.9,202.3,653.9,202.3
	L653.9,202.3z"/>
<path class="st1" d="M594,161.1l2.8,1.5c0.2,0.1,0.3,0.3,0.2,0.5c0,0.1-0.1,0.1-0.2,0.2l-2.8,1.5c-0.1,0-0.1,0.1-0.2,0.2l-1.5,2.8
	c-0.1,0.2-0.3,0.3-0.5,0.2c-0.1,0-0.1-0.1-0.2-0.2l-1.5-2.8c0-0.1-0.1-0.1-0.2-0.2l-2.8-1.5c-0.2-0.1-0.3-0.3-0.2-0.5
	c0-0.1,0.1-0.1,0.2-0.2l2.8-1.5c0.1,0,0.1-0.1,0.2-0.2l1.5-2.8c0.1-0.2,0.3-0.3,0.5-0.2c0.1,0,0.1,0.1,0.2,0.2l1.5,2.8
	C593.9,161,593.9,161.1,594,161.1"/>
<path class="st4" d="M178,127.1l2.8,1.5c0.2,0.1,0.3,0.3,0.2,0.5c0,0.1-0.1,0.1-0.2,0.2l-2.8,1.5c-0.1,0-0.1,0.1-0.2,0.2l-1.5,2.8
	c-0.1,0.2-0.3,0.3-0.5,0.2c-0.1,0-0.1-0.1-0.2-0.2l-1.5-2.8c0-0.1-0.1-0.1-0.2-0.2l-2.8-1.5c-0.2-0.1-0.3-0.3-0.2-0.5
	c0-0.1,0.1-0.1,0.2-0.2l2.8-1.5c0.1,0,0.1-0.1,0.2-0.2l1.5-2.8c0.1-0.2,0.3-0.3,0.5-0.2c0.1,0,0.1,0.1,0.2,0.2l1.5,2.8
	C177.9,127,177.9,127.1,178,127.1"/>
<path class="st1" d="M299.8,56.9c0,1.6-1.3,2.9-2.9,2.9s-2.9-1.3-2.9-2.9s1.3-2.9,2.9-2.9S299.8,55.3,299.8,56.9"/>
<path class="st3" d="M50.9,205.3l-0.8-1.6c0-0.1-0.1-0.1-0.2-0.2l-1.6-0.8c-0.2-0.1-0.3-0.4-0.2-0.6c0-0.1,0.1-0.1,0.2-0.2l1.6-0.8
	c0.1,0,0.1-0.1,0.2-0.2l0.8-1.6c0.1-0.2,0.4-0.3,0.6-0.2c0.1,0,0.1,0.1,0.2,0.2l0.8,1.6c0,0.1,0.1,0.1,0.2,0.2l1.6,0.8
	c0.3,0.2,0.3,0.6,0,0.8l-1.6,0.8c-0.1,0-0.1,0.1-0.2,0.2l-0.8,1.6c-0.1,0.2-0.4,0.3-0.6,0.2C51,205.4,50.9,205.3,50.9,205.3
	L50.9,205.3z"/>
<path class="st1" d="M1691,261.1l2.8,1.5c0.2,0.1,0.3,0.3,0.2,0.5c0,0.1-0.1,0.1-0.2,0.2l-2.8,1.5c-0.1,0-0.1,0.1-0.2,0.2l-1.5,2.8
	c-0.1,0.2-0.3,0.3-0.5,0.2c-0.1,0-0.1-0.1-0.2-0.2l-1.5-2.8c0-0.1-0.1-0.1-0.2-0.2l-2.8-1.5c-0.2-0.1-0.3-0.3-0.2-0.5
	c0-0.1,0.1-0.1,0.2-0.2l2.8-1.5c0.1,0,0.1-0.1,0.2-0.2l1.5-2.8c0.1-0.2,0.3-0.3,0.5-0.2c0.1,0,0.1,0.1,0.2,0.2l1.5,2.8
	C1690.9,261,1690.9,261.1,1691,261.1"/>
<path class="st7" d="M1637.1,223.7l1.4,0.7c0.2,0.1,0.3,0.3,0.2,0.5c0,0.1-0.1,0.1-0.2,0.2l-1.4,0.7c-0.1,0-0.1,0.1-0.2,0.2
	l-0.7,1.4c-0.1,0.2-0.3,0.3-0.5,0.2c-0.1,0-0.1-0.1-0.2-0.2l-0.7-1.4c0-0.1-0.1-0.1-0.2-0.2l-1.4-0.7c-0.2-0.1-0.3-0.3-0.2-0.5
	c0-0.1,0.1-0.1,0.2-0.2l1.4-0.7c0.1,0,0.1-0.1,0.2-0.2l0.7-1.4c0.1-0.2,0.3-0.3,0.5-0.2c0.1,0,0.1,0.1,0.2,0.2l0.7,1.4
	C1636.9,223.6,1637,223.7,1637.1,223.7"/>
<path class="st1" d="M1611.9,48.6l1.3,0.7c0.3,0.1,0.3,0.5,0,0.7l-1.3,0.7c-0.1,0-0.1,0.1-0.2,0.2l-0.7,1.3
	c-0.1,0.2-0.3,0.2-0.5,0.1c-0.1,0-0.1-0.1-0.1-0.1l-0.7-1.3c0-0.1-0.1-0.1-0.2-0.2l-1.3-0.7c-0.2-0.1-0.3-0.3-0.2-0.5
	c0-0.1,0.1-0.1,0.2-0.2l1.3-0.7c0.1,0,0.1-0.1,0.2-0.2l0.7-1.3c0.1-0.2,0.3-0.3,0.5-0.2c0.1,0,0.1,0.1,0.2,0.2l0.7,1.3
	C1611.8,48.6,1611.8,48.6,1611.9,48.6"/>
<path class="st2" d="M1663.1,116.7l1.4,0.7c0.2,0.1,0.3,0.3,0.2,0.5c0,0.1-0.1,0.1-0.2,0.2l-1.4,0.7c-0.1,0-0.1,0.1-0.2,0.2
	l-0.7,1.4c-0.1,0.2-0.3,0.3-0.5,0.2c-0.1,0-0.1-0.1-0.2-0.2l-0.7-1.4c0-0.1-0.1-0.1-0.2-0.2l-1.4-0.7c-0.2-0.1-0.3-0.3-0.2-0.5
	c0-0.1,0.1-0.1,0.2-0.2l1.4-0.7c0.1,0,0.1-0.1,0.2-0.2l0.7-1.4c0.1-0.2,0.3-0.3,0.5-0.2c0.1,0,0.1,0.1,0.2,0.2l0.7,1.4
	C1662.9,116.6,1663,116.7,1663.1,116.7"/>
<g transform="translate(1580 434)">
	<path class="st7" d="M4.7,1.8L6,2.5C6.2,2.6,6.3,2.8,6.2,3c0,0.1-0.1,0.1-0.2,0.2L4.7,4C4.6,4,4.5,4.1,4.5,4.1L3.8,5.5
		C3.7,5.7,3.4,5.7,3.2,5.6C3.1,5.6,3.1,5.5,3,5.4L2.3,4.1L2.2,4L0.8,3.2C0.6,3.1,0.6,2.9,0.7,2.7c0-0.1,0.1-0.1,0.2-0.2l1.4-0.7
		c0.1,0,0.1-0.1,0.2-0.2l0.7-1.4c0-0.1,0.2-0.2,0.4-0.1c0.1,0,0.1,0.1,0.2,0.2l0.7,1.4C4.5,1.7,4.6,1.8,4.7,1.8"/>
</g>
<path class="st2" d="M1385,483.1l2.8,1.5c0.2,0.1,0.3,0.3,0.2,0.5c0,0.1-0.1,0.1-0.2,0.2l-2.8,1.5c-0.1,0-0.1,0.1-0.2,0.2l-1.5,2.8
	c-0.1,0.2-0.3,0.3-0.5,0.2c-0.1,0-0.1-0.1-0.2-0.2l-1.5-2.8c0-0.1-0.1-0.1-0.2-0.2l-2.8-1.5c-0.2-0.1-0.3-0.3-0.2-0.5
	c0-0.1,0.1-0.1,0.2-0.2l2.8-1.5c0.1,0,0.1-0.1,0.2-0.2l1.5-2.8c0.1-0.2,0.3-0.3,0.5-0.2c0.1,0,0.1,0.1,0.2,0.2l1.5,2.8
	C1384.9,483,1384.9,483.1,1385,483.1"/>
<path class="st1" d="M1273.9,338.6l1.3,0.7c0.3,0.1,0.3,0.5,0,0.7l-1.3,0.7c-0.1,0-0.1,0.1-0.2,0.1l-0.7,1.3
	c-0.1,0.2-0.3,0.2-0.5,0.1c-0.1,0-0.1-0.1-0.1-0.1l-0.7-1.3c0-0.1-0.1-0.1-0.2-0.1l-1.3-0.7c-0.2-0.1-0.2-0.3-0.1-0.5
	c0-0.1,0.1-0.1,0.1-0.1l1.3-0.7c0.1,0,0.1-0.1,0.2-0.1l0.7-1.3c0.1-0.2,0.3-0.3,0.5-0.2c0.1,0,0.1,0.1,0.2,0.2L1273.9,338.6
	C1273.8,338.6,1273.8,338.6,1273.9,338.6"/>
<path class="st2" d="M1494.1,406.7l1.4,0.7c0.2,0.1,0.3,0.3,0.2,0.5c0,0.1-0.1,0.1-0.2,0.2l-1.4,0.7c-0.1,0-0.1,0.1-0.2,0.2
	l-0.7,1.4c-0.1,0.2-0.3,0.3-0.5,0.2c-0.1,0-0.1-0.1-0.2-0.2l-0.7-1.4c0-0.1-0.1-0.1-0.2-0.2l-1.4-0.7c-0.2-0.1-0.3-0.3-0.2-0.5
	c0-0.1,0.1-0.1,0.2-0.2l1.4-0.7c0.1,0,0.1-0.1,0.2-0.2l0.7-1.4c0.1-0.2,0.3-0.3,0.5-0.2c0.1,0,0.1,0.1,0.2,0.2l0.7,1.4
	C1493.9,406.6,1494,406.7,1494.1,406.7"/>
<path class="st8" d="M1712,450.5l1.8-0.5l1.8,0.5l-0.5-1.8l0.5-1.8l-1.8,0.5l-1.8-0.5l0.5,1.8L1712,450.5z"/>
<g>
	<path class="st5" d="M70.5,513l-1.5,1.5 M74.5,509l-1.5,1.5 M70.5,513.2c0.7,0.7,1.9,0.7,2.6,0s0.7-1.9,0-2.6s-1.9-0.7-2.6,0
		C69.8,511.3,69.8,512.4,70.5,513.2z"/>
</g>
<path class="st2" d="M239.1,1200.9l1.4-0.7c0.2-0.1,0.3-0.3,0.2-0.5c0-0.1-0.1-0.1-0.2-0.2l-1.4-0.7c-0.1,0-0.1-0.1-0.2-0.2
	l-0.7-1.4c-0.1-0.2-0.3-0.3-0.5-0.2c-0.1,0-0.1,0.1-0.2,0.2l-0.7,1.4c0,0.1-0.1,0.1-0.2,0.2l-1.4,0.7c-0.2,0.1-0.3,0.3-0.2,0.5
	c0,0.1,0.1,0.1,0.2,0.2l1.4,0.7c0.1,0,0.1,0.1,0.2,0.2l0.7,1.4c0.1,0.3,0.5,0.3,0.7,0l0.7-1.4C238.9,1201,239,1200.9,239.1,1200.9"
	/>
<path class="st1" d="M1206.8,1132.9c0-1.6-1.3-2.9-2.9-2.9s-2.9,1.3-2.9,2.9l0,0c0,1.6,1.3,2.9,2.9,2.9S1206.8,1134.5,1206.8,1132.9
	 M115,1035.8l2.8-1.5c0.2-0.1,0.3-0.3,0.2-0.5c0-0.1-0.1-0.1-0.2-0.2l-2.8-1.5c-0.1,0-0.1-0.1-0.2-0.2l-1.5-2.8
	c-0.1-0.2-0.3-0.3-0.5-0.2c-0.1,0-0.1,0.1-0.2,0.2l-1.5,2.8c0,0.1-0.1,0.1-0.2,0.2l-2.8,1.5c-0.2,0.1-0.3,0.3-0.2,0.5
	c0,0.1,0.1,0.1,0.2,0.2l2.8,1.5c0.1,0,0.1,0.1,0.2,0.2l1.5,2.8c0.2,0.3,0.5,0.3,0.7,0l1.5-2.8C114.9,1035.9,114.9,1035.9,115,1035.8
	"/>
<path class="st2" d="M206.1,793.9l1.4-0.7c0.2-0.1,0.3-0.3,0.2-0.5c0-0.1-0.1-0.1-0.2-0.2l-1.4-0.7c-0.1,0-0.1-0.1-0.2-0.2l-0.7-1.4
	c-0.1-0.2-0.3-0.3-0.5-0.2c-0.1,0-0.1,0.1-0.2,0.2l-0.7,1.4c0,0.1-0.1,0.1-0.2,0.2l-1.4,0.7c-0.2,0.1-0.3,0.3-0.2,0.5
	c0,0.1,0.1,0.1,0.2,0.2l1.4,0.7c0.1,0,0.1,0.1,0.2,0.2l0.7,1.4c0.1,0.3,0.5,0.3,0.7,0l0.7-1.4C205.9,794,206,793.9,206.1,793.9"/>
<path class="st1" d="M1456,1061.8l2.8-1.5c0.2-0.1,0.3-0.3,0.2-0.5c0-0.1-0.1-0.1-0.2-0.2l-2.8-1.5c-0.1,0-0.1-0.1-0.2-0.2l-1.5-2.8
	c-0.1-0.2-0.3-0.3-0.5-0.2c-0.1,0-0.1,0.1-0.2,0.2l-1.5,2.8c0,0.1-0.1,0.1-0.2,0.2l-2.8,1.5c-0.2,0.1-0.3,0.3-0.2,0.5
	c0,0.1,0.1,0.1,0.2,0.2l2.8,1.5c0.1,0,0.1,0.1,0.2,0.2l1.5,2.8c0.2,0.3,0.5,0.3,0.7,0l1.5-2.8
	C1455.9,1061.9,1455.9,1061.9,1456,1061.8"/>
<path class="st7" d="M1402.1,1085.9l1.4-0.7c0.2-0.1,0.3-0.3,0.2-0.5c0-0.1-0.1-0.1-0.2-0.2l-1.4-0.7c-0.1,0-0.1-0.1-0.2-0.2
	l-0.7-1.4c-0.1-0.2-0.3-0.3-0.5-0.2c-0.1,0-0.1,0.1-0.2,0.2l-0.7,1.4c0,0.1-0.1,0.1-0.2,0.2l-1.4,0.7c-0.2,0.1-0.3,0.3-0.2,0.5
	c0,0.1,0.1,0.1,0.2,0.2l1.4,0.7c0.1,0,0.1,0.1,0.2,0.2l0.7,1.4c0.2,0.3,0.5,0.3,0.7,0l0.7-1.4
	C1401.9,1086,1402,1085.9,1402.1,1085.9"/>
<path class="st5" d="M411,894.7l3.6,0.9l-0.9-3.6L411,894.7z"/>
<path class="st6" d="M522.2,745.2l2-1.1l-2-1.1l-1.1-2l-1.1,2l-2,1.1l2,1.1l1.1,2L522.2,745.2z"/>
<path class="st4" d="M178,1225.8l2.8-1.5c0.2-0.1,0.3-0.3,0.2-0.5c0-0.1-0.1-0.1-0.2-0.2l-2.8-1.5c-0.1,0-0.1-0.1-0.2-0.2l-1.5-2.8
	c-0.1-0.2-0.3-0.3-0.5-0.2c-0.1,0-0.1,0.1-0.2,0.2l-1.5,2.8c0,0.1-0.1,0.1-0.2,0.2l-2.8,1.5c-0.2,0.1-0.3,0.3-0.2,0.5
	c0,0.1,0.1,0.1,0.2,0.2l2.8,1.5c0.1,0,0.1,0.1,0.2,0.2l1.5,2.8c0.1,0.3,0.5,0.3,0.7,0l1.5-2.8C177.9,1225.9,177.9,1225.9,178,1225.8
	"/>
<path class="st1" d="M299.8,1325.9c0-1.6-1.3-2.9-2.9-2.9s-2.9,1.3-2.9,2.9s1.3,2.9,2.9,2.9S299.8,1327.5,299.8,1325.9"/>
<path class="st3" d="M50.9,1174.2l-0.8,1.6c0,0.1-0.1,0.1-0.2,0.2l-1.6,0.8c-0.2,0.1-0.3,0.4-0.2,0.6c0,0.1,0.1,0.1,0.2,0.2l1.6,0.8
	c0.1,0,0.1,0.1,0.2,0.2l0.8,1.6c0.2,0.3,0.6,0.3,0.8,0l0.8-1.6c0-0.1,0.1-0.1,0.2-0.2l1.6-0.8c0.2-0.1,0.3-0.4,0.2-0.6
	c0-0.1-0.1-0.1-0.2-0.2l-1.6-0.8c-0.1,0-0.1-0.1-0.2-0.2l-0.8-1.6c-0.1-0.2-0.4-0.3-0.6-0.2C51,1174.1,50.9,1174.2,50.9,1174.2
	L50.9,1174.2z"/>
<path class="st1" d="M1691,1110.8l2.8-1.5c0.2-0.1,0.3-0.3,0.2-0.5c0-0.1-0.1-0.1-0.2-0.2l-2.8-1.5c-0.1,0-0.1-0.1-0.2-0.2l-1.5-2.8
	c-0.1-0.2-0.3-0.3-0.5-0.2c-0.1,0-0.1,0.1-0.2,0.2l-1.5,2.8c0,0.1-0.1,0.1-0.2,0.2l-2.8,1.5c-0.2,0.1-0.3,0.3-0.2,0.5
	c0,0.1,0.1,0.1,0.2,0.2l2.8,1.5c0.1,0,0.1,0.1,0.2,0.2l1.5,2.8c0.2,0.3,0.5,0.3,0.7,0l1.5-2.8
	C1690.9,1110.9,1690.9,1110.9,1691,1110.8"/>
<path class="st7" d="M1637.1,1155.9l1.4-0.7c0.2-0.1,0.3-0.3,0.2-0.5c0-0.1-0.1-0.1-0.2-0.2l-1.4-0.7c-0.1,0-0.1-0.1-0.2-0.2
	l-0.7-1.4c-0.1-0.2-0.3-0.3-0.5-0.2c-0.1,0-0.1,0.1-0.2,0.2l-0.7,1.4c0,0.1-0.1,0.1-0.2,0.2l-1.4,0.7c-0.2,0.1-0.3,0.3-0.2,0.5
	c0,0.1,0.1,0.1,0.2,0.2l1.4,0.7c0.1,0,0.1,0.1,0.2,0.2l0.7,1.4c0.2,0.3,0.5,0.3,0.7,0l0.7-1.4
	C1636.9,1156,1637,1155.9,1637.1,1155.9"/>
<path class="st1" d="M1611.9,1349.7l1.3-0.7c0.2-0.1,0.2-0.3,0.1-0.5c0-0.1-0.1-0.1-0.1-0.1l-1.3-0.7c-0.1,0-0.1-0.1-0.2-0.2
	l-0.7-1.3c-0.1-0.2-0.3-0.2-0.5-0.1c-0.1,0-0.1,0.1-0.1,0.1l-0.7,1.3c0,0.1-0.1,0.1-0.2,0.2l-1.3,0.7c-0.2,0.1-0.3,0.3-0.2,0.5
	c0,0.1,0.1,0.1,0.2,0.2l1.3,0.7c0.1,0,0.1,0.1,0.2,0.2l0.7,1.3c0.1,0.2,0.3,0.3,0.5,0.2c0.1,0,0.1-0.1,0.2-0.2l0.7-1.3
	C1611.8,1349.8,1611.8,1349.8,1611.9,1349.7"/>
<path class="st2" d="M1663.1,1249.9l1.4-0.7c0.2-0.1,0.3-0.3,0.2-0.5c0-0.1-0.1-0.1-0.2-0.2l-1.4-0.7c-0.1,0-0.1-0.1-0.2-0.2
	l-0.7-1.4c-0.1-0.2-0.3-0.3-0.5-0.2c-0.1,0-0.1,0.1-0.2,0.2l-0.7,1.4c0,0.1-0.1,0.1-0.2,0.2l-1.4,0.7c-0.2,0.1-0.3,0.3-0.2,0.5
	c0,0.1,0.1,0.1,0.2,0.2l1.4,0.7c0.1,0,0.1,0.1,0.2,0.2l0.7,1.4c0.2,0.3,0.5,0.3,0.7,0l0.7-1.4
	C1662.9,1250,1663,1249.9,1663.1,1249.9"/>
<g transform="matrix(1 0 0 -1 1587 986)">
	<path class="st7" d="M4.7,1.8L6,2.5C6.2,2.6,6.3,2.8,6.2,3c0,0.1-0.1,0.1-0.2,0.2L4.7,4C4.6,4,4.5,4.1,4.5,4.1L3.8,5.5
		C3.7,5.7,3.4,5.7,3.2,5.6C3.1,5.6,3.1,5.5,3,5.4L2.3,4.1L2.2,4L0.8,3.2C0.6,3.1,0.6,2.9,0.7,2.7c0-0.1,0.1-0.1,0.2-0.2l1.4-0.7
		c0.1,0,0.1-0.1,0.2-0.2l0.7-1.4c0-0.1,0.2-0.2,0.4-0.1c0.1,0,0.1,0.1,0.2,0.2l0.7,1.4C4.5,1.7,4.6,1.8,4.7,1.8"/>
</g>
<g>
	<path class="st3" d="M1164,915l2.8-2.8 M1156,923l2.8-2.8 M1161.6,912.9c0-1-5.5,4.5-4.5,4.5c-1,0,4.5,5.5,4.5,4.5
		c0,1,5.5-4.5,4.5-4.5C1167.1,917.4,1161.6,911.9,1161.6,912.9L1161.6,912.9z"/>
</g>
<path class="st2" d="M1385,770.8l2.8-1.5c0.2-0.1,0.3-0.3,0.2-0.5c0-0.1-0.1-0.1-0.2-0.2l-2.8-1.5c-0.1,0-0.1-0.1-0.2-0.2l-1.5-2.8
	c-0.1-0.2-0.3-0.3-0.5-0.2c-0.1,0-0.1,0.1-0.2,0.2l-1.5,2.8c0,0.1-0.1,0.1-0.2,0.2l-2.8,1.5c-0.2,0.1-0.3,0.3-0.2,0.5
	c0,0.1,0.1,0.1,0.2,0.2l2.8,1.5c0.1,0,0.1,0.1,0.2,0.2l1.5,2.8c0.2,0.3,0.5,0.3,0.7,0l1.5-2.8C1384.9,770.9,1384.9,770.9,1385,770.8
	"/>
<path class="st1" d="M1273.9,962.7l1.3-0.7c0.2-0.1,0.2-0.3,0.1-0.5c0-0.1-0.1-0.1-0.1-0.1l-1.3-0.7c-0.1,0-0.1-0.1-0.2-0.2
	l-0.7-1.3c-0.1-0.2-0.3-0.2-0.5-0.1c-0.1,0-0.1,0.1-0.1,0.1l-0.7,1.3c0,0.1-0.1,0.1-0.2,0.2l-1.3,0.7c-0.2,0.1-0.3,0.3-0.2,0.5
	c0,0.1,0.1,0.1,0.2,0.2l1.3,0.7c0.1,0,0.1,0.1,0.2,0.2l0.7,1.3c0.1,0.2,0.3,0.3,0.5,0.2c0.1,0,0.1-0.1,0.2-0.2l0.7-1.3
	C1273.8,962.8,1273.8,962.8,1273.9,962.7"/>
<path class="st2" d="M1494.1,873.9l1.4-0.7c0.2-0.1,0.3-0.3,0.2-0.5c0-0.1-0.1-0.1-0.2-0.2l-1.4-0.7c-0.1,0-0.1-0.1-0.2-0.2
	l-0.7-1.4c-0.1-0.2-0.3-0.3-0.5-0.2c-0.1,0-0.1,0.1-0.2,0.2l-0.7,1.4c0,0.1-0.1,0.1-0.2,0.2l-1.4,0.7c-0.2,0.1-0.3,0.3-0.2,0.5
	c0,0.1,0.1,0.1,0.2,0.2l1.4,0.7c0.1,0,0.1,0.1,0.2,0.2l0.7,1.4c0.2,0.3,0.5,0.3,0.7,0l0.7-1.4C1493.9,874,1494,873.9,1494.1,873.9"
	/>
<path class="st8" d="M1712,812l1.8,0.5l1.8-0.5l-0.5,1.8l0.5,1.8l-1.8-0.5l-1.8,0.5l0.5-1.8L1712,812z"/>
<g>
	<path class="st5" d="M70.5,721l-1.5-1.5 M74.5,725l-1.5-1.5 M70.5,720.8c0.7-0.7,1.9-0.7,2.6,0s0.7,1.9,0,2.6s-1.9,0.7-2.6,0
		C69.8,722.7,69.8,721.6,70.5,720.8L70.5,720.8z"/>
</g>
<g class="st9">
	<path class="st10" d="M373.2,442.8c4.3,3.6,4.9,10,1.2,14.3c-2.5,2.9-6.3,4.2-10.1,3.4c-1.2,1.7-1.8,3.4-1.5,4.9
		c0.2,0.8-0.4,0.7-0.7,0.4c-1.4-1.8-3-4.6-2.9-8.1c-3.6-3.7-3.8-9.6-0.5-13.6C362.5,439.7,369,439.2,373.2,442.8"/>
	<path class="st11" d="M370.3,449.4h-1.2v-0.6c0-0.8-0.7-3-1.8-3c-0.4,0-0.7,0.2-0.9,0.5c-0.2,0.2-0.3,0.5-0.3,0.9
		c0.1,0.9,0.2,1.4-0.4,2c-0.6,0.7-0.9,0.9-1.4,0.9h-1.2c-0.6,0-1.2,0.6-1.2,1.2v2.4c0,0.6,0.6,1.2,1.2,1.2h1l0.9,0.5
		c0.1,0.1,0.2,0.1,0.3,0.1h3.8c0.7,0,1.7-0.3,1.8-1.1l0.6-3.6v-0.1C371.5,449.9,371,449.4,370.3,449.4L370.3,449.4L370.3,449.4z
		 M370.3,454.2c0,0.4-0.8,0.6-1.2,0.6h-3.8l-1-0.6v-3.6c0.8,0,1.3-0.5,1.9-1.1c0.7-0.8,0.7-1.5,0.5-2.5c0-0.3,0.3-0.6,0.6-0.6
		c0.5,0,1.2,1.6,1.2,2.4v0.6c0,0.4,0.2,0.6,0.6,0.6h1.2c0.4,0,0.6,0.2,0.6,0.6L370.3,454.2L370.3,454.2L370.3,454.2z"/>
	<path class="st12" d="M400.6,483.6c0-4.5-1.6-8.7-4.2-11.9c-2.1-2.2-4.4-0.8-5.1,9.5c-0.8,12.4-7.3,4.1-12.5,10
		c-5.2,5.8-17.3-4.8-14.2,1.4c3.2,6,9.6,10.1,16.9,10.1C392,502.7,400.6,494.1,400.6,483.6"/>
	<path class="st13" d="M381.4,464.5c10.6,0,19.1,8.6,19.1,19.1c0,10.6-8.6,19.1-19.1,19.1s-19.1-8.6-19.1-19.1
		C362.3,473,370.9,464.5,381.4,464.5L381.4,464.5z"/>
	<path class="st13" d="M381.4,464.5c10.6,0,19.1,8.6,19.1,19.1c0,10.6-8.6,19.1-19.1,19.1s-19.1-8.6-19.1-19.1
		C362.3,473,370.9,464.5,381.4,464.5L381.4,464.5z"/>
	<path class="st13" d="M363.8,476.1c3.7,1.6,8.1,3.1,11.8,3.1c7.6,0,9.3-4.6,18.3-4.8c1.6,0,3.1,0,4.4-0.1 M374,501.2
		c1.4-3.5,4.2-8.5,9.7-11.3c6.5-3.3,11.2-0.6,16.1-0.8"/>
	<path class="st13" d="M365.4,493.9c2.9-0.4,7.8-1.7,11.8-5.7c6.2-6.2,7.9-6.4,11.7-6.4c3.1,0,7.7,3.2,11.6,3.4 M373.7,466.1
		c4,0.6,8.8,1.9,11.9,4.4c2.4,2,6.5,1.8,10.6,1 M369.8,468.5c1.5,0.3,2.8,0.7,3.7,0.9c2.9,0.9,5.5,1.3,4.7,3.3
		c-0.9,2.6-5.3,1.1-8.2,0.2c-1-0.3-2.1-0.9-3.3-1.5 M362.5,481.4c3.8,0.5,9.1,1.8,9.7,4.8c0.4,2-3.9,3.2-8.7,3.8 M376.5,502.1
		c3.3-3.5,11.5-10.6,21.1-8.3l0,0"/>
</g>
</svg>
