<svg width="140" height="126" viewBox="0 0 140 126" xmlns="http://www.w3.org/2000/svg" xmlns:xlink="http://www.w3.org/1999/xlink"><title>logo</title><desc>Created using Figma</desc><g transform="translate(261 286)" fill="#010101"><use xlink:href="#a" transform="translate(-261 -286)"/><use xlink:href="#b" transform="translate(-205 -233)"/></g><defs><path id="a" fill-rule="evenodd" d="M110.602 39.129c1.514.437 3.016.913 4.507 1.426C130.229 45.784 140 53.975 140 62.444c0 8.832-10.442 17.468-26.492 22.81-.848.282-1.717.553-2.603.816a79.12 79.12 0 0 1 .839 3.76c3.169 16.076.729 29.291-6.781 33.657-7.27 4.228-19.022.075-30.92-10.21a91.799 91.799 0 0 1-3.785-3.469 79.683 79.683 0 0 1-2.921 2.705c-12.284 10.786-24.899 15.261-32.415 10.908-7.277-4.217-9.564-16.517-6.636-32.009a92.15 92.15 0 0 1 1.1-5.02 79.442 79.442 0 0 1-3.786-1.19C10.161 79.902 0 71.16 0 62.444c0-8.439 9.466-16.575 24.288-21.766a92.636 92.636 0 0 1 5.181-1.636 94.35 94.35 0 0 1-1.034-4.659c-3.072-15.765-.91-28.364 6.386-32.607 7.61-4.425 20.282.327 32.924 11.603.787.703 1.56 1.42 2.32 2.153a93.773 93.773 0 0 1 3.486-3.214C85.614 1.773 97.559-2.639 104.862 1.592c7.617 4.412 9.848 17.814 6.436 34.449a85.768 85.768 0 0 1-.696 3.088zm-1.326 41.16a77.73 77.73 0 0 0 2.351-.738h.001c13.857-4.613 22.392-11.67 22.392-17.107 0-5.104-7.903-11.728-20.858-16.208a87.981 87.981 0 0 0-4.162-1.32c-1.722 5.6-4.021 11.514-6.814 17.558 2.926 6.19 5.318 12.181 7.09 17.816zm-2.726 29.268c.928-5.024.728-11.452-.673-18.56a73.647 73.647 0 0 0-.757-3.403c-5.8 1.347-12.193 2.333-18.962 2.936-3.847 5.595-7.79 10.634-11.735 14.969a86.344 86.344 0 0 0 3.52 3.224c10.176 8.796 19.611 12.13 24.023 9.565 2.074-1.206 3.75-4.216 4.584-8.731zm-68.64 8.659c2.075 1.201 5.508 1.158 9.819-.371 4.797-1.703 10.24-5.086 15.672-9.856.91-.8 1.799-1.623 2.668-2.467-4.088-4.407-8.145-9.44-12.018-14.915-6.784-.553-13.132-1.47-18.866-2.744a86.484 86.484 0 0 0-1.023 4.67c-2.503 13.247-.668 23.125 3.748 25.683zM11.206 70.804c3.864 3.323 9.502 6.37 16.329 8.713 1.143.391 2.295.753 3.456 1.087 1.768-5.791 4.099-11.872 6.908-18.014-2.773-6.052-5.071-12.037-6.823-17.761a85.98 85.98 0 0 0-4.819 1.523C13.581 50.792 5.98 57.323 5.98 62.444c0 2.406 1.754 5.372 5.226 8.36zM37.817 6.976c-4.397 2.556-6.144 12.746-3.513 26.254v-.001a88.42 88.42 0 0 0 .962 4.333c5.795-1.319 12.098-2.303 18.682-2.916 3.84-5.444 7.86-10.439 11.926-14.826a78.35 78.35 0 0 0-2.1-1.948C52.858 8.136 42.5 4.252 37.817 6.976zm52.62 34.2a191.323 191.323 0 0 1 4.257 7.033 209.781 209.781 0 0 1 4.027 7.318c1.771-4.164 3.275-8.226 4.481-12.11a130.96 130.96 0 0 0-12.766-2.241zm-12.131-7.072c-2.718-3.637-5.48-6.989-8.24-9.99a132.627 132.627 0 0 0-8.307 9.986 175.276 175.276 0 0 1 16.547.004zM41.33 55.523a176.753 176.753 0 0 1 8.244-14.358c-4.438.557-8.698 1.29-12.692 2.188 1.217 3.94 2.707 8.02 4.448 12.17zM36.8 82.068c3.993.873 8.317 1.57 12.902 2.084a177.773 177.773 0 0 1-8.365-14.5c-1.779 4.239-3.302 8.406-4.538 12.416zm25.009 9.004c2.761 3.656 5.589 7.054 8.423 10.127 2.74-3.03 5.493-6.434 8.22-10.156-2.777.124-5.598.188-8.452.188-2.778 0-5.51-.053-8.191-.159zm41.671-9.264c-1.253-3.942-2.831-8.087-4.702-12.372a191.016 191.016 0 0 1-4.06 7.452 210.21 210.21 0 0 1-4.298 7.156c4.618-.556 9-1.306 13.06-2.236zm-20.66 2.964a197.066 197.066 0 0 0 6.717-10.886 181.252 181.252 0 0 0 6.016-11.383 197.27 197.27 0 0 0-6.035-11.284 181.056 181.056 0 0 0-6.746-10.82 168.674 168.674 0 0 0-25.52-.004 168.906 168.906 0 0 0-6.788 10.857v-.002a170.762 170.762 0 0 0-5.955 11.338 170.54 170.54 0 0 0 12.815 22.234c4.082.266 8.32.402 12.676.402 4.374 0 8.667-.154 12.82-.452zm22.621-49.944c2.945-14.363 1.122-25.315-3.566-28.031-4.402-2.55-14.062 1.018-24.398 10.053a88.148 88.148 0 0 0-3.22 2.967c4.002 4.33 7.988 9.334 11.835 14.837 6.604.622 12.911 1.624 18.719 2.97.227-.928.436-1.86.63-2.796z"/><path id="b" fill-rule="evenodd" d="M0 0h6.826v6.552H0V0zm0 13.073V19h6.826v-5.927H0zm12.595 0V19H29v-5.927H12.595zM29 6.552V0H12.595v6.552H29z"/></defs></svg>
