<svg xmlns="http://www.w3.org/2000/svg" width="216" height="257" viewBox="0 0 216 257"><defs><filter height="130%" width="130%"><feOffset in="SourceGraphic" result="offOut" dy="2"/><feColorMatrix values=".3 0 0 0 0, 0 .2 0 0 0, 0 0 0 0, 0 0 0 1 0" in="offOut" result="matrixOut"/><feGaussianBlur in="matrixOut" result="blurOut" stdDeviation="2"/><feBlend in="SourceGraphic" in2="blurOut" result="drop-shadow"/></filter><filter id="e" x="-100%" y="-100%" width="300%" height="300%"><feOffset result="out" in="SourceGraphic" dy="2"/><feColorMatrix result="out" in="out" values="0 0 0 0.5 0 0 0 0 0.4 0 0 0 0 0 0 0 0 0 0.6 0"/><feGaussianBlur result="out" in="out" stdDeviation="1"/><feBlend in="SourceGraphic" in2="out" result="js-dropshadow"/></filter><filter id="a"><feGaussianBlur stdDeviation="3" in="SourceGraphic"/></filter><linearGradient id="c" gradientUnits="userSpaceOnUse" x1="90.04" y1="177.667" x2="90.04" y2="76.833"><stop offset="0" stop-color="#fff" stop-opacity="0"/><stop offset="1" stop-color="#fff" stop-opacity=".7"/></linearGradient><linearGradient id="d" gradientUnits="userSpaceOnUse" x1="107.5" y1="191.288" x2="107.5" y2="74.886"><stop offset="0" stop-color="#fff" stop-opacity="0"/><stop offset="1" stop-color="#fff"/></linearGradient></defs><g><path fill-rule="evenodd" clip-rule="evenodd" fill="#DCDCCC" stroke="#ACAC9D" stroke-width=".75" stroke-linecap="round" stroke-linejoin="round" stroke-miterlimit="10" d="M184.7 89.7c2.4-1.4 4.3-.2 4.3 2.5l-.3 83.4c0 2.8-2 6.1-4.4 7.5l-72.8 41.5c-2.4 1.4-6.3 1.3-8.7 0l-72.5-42c-2.4-1.4-4.3-4.8-4.3-7.5l.3-83.3c0-2.8 2-3.9 4.3-2.5l72.5 42c2.4 1.4 6.3 1.4 8.7 0l72.9-41.6z"/><path fill-rule="evenodd" clip-rule="evenodd" fill="#8A8A7B" d="M61.1 121.2c0-2.5 1.7-5.5 3.8-6.7l39-22.8c2.1-1.2 5.6-1.3 7.7-.1l39.2 22.4c2.1 1.2 3.9 4.2 3.9 6.7l.2 45.1c0 2.5-1.7 5.5-3.8 6.7l-39 22.8c-2.1 1.2-5.6 1.3-7.7.1L65.2 173c-2.1-1.2-3.9-4.2-3.9-6.6l-.2-45.2z" filter="url(#a)"/><g><radialGradient id="b" cx="107.504" cy="101.6" r="84.162" gradientUnits="userSpaceOnUse"><stop offset="0" stop-color="#FAEB0F"/><stop offset="1" stop-color="#F1C309"/></radialGradient><path fill-rule="evenodd" clip-rule="evenodd" fill="url(#b)" d="M107.5 193.2c-1.7 0-3.4-.4-4.6-1.1l-43.9-25c-2.6-1.5-4.7-5.1-4.7-8.1l-.3-50.5c0-3 2-6.6 4.6-8.1l43.6-25.5c1.3-.7 3-1.1 4.7-1.1 1.7 0 3.4.4 4.6 1.1l43.9 25c2.6 1.5 4.7 5.1 4.7 8.1l.3 50.5c0 3-2 6.6-4.6 8.1l-43.6 25.5c-1.2.7-2.9 1.1-4.7 1.1z"/><path fill="#C5A807" d="M107 74.5c1.5 0 3.1.3 4.3 1l43.9 25c2.4 1.4 4.3 4.7 4.3 7.4l.3 50.5c0 2.8-1.9 6.1-4.3 7.5l-43.6 25.5c-1.2.7-2.8 1-4.4 1-1.5 0-3.1-.3-4.3-1l-43.9-25c-2.4-1.4-4.3-4.7-4.3-7.5l-.3-50.5c0-2.8 1.9-6.1 4.3-7.5l43.6-25.5c1.2-.5 2.8-.9 4.4-.9m0-1.5c-1.9 0-3.7.4-5.1 1.3L58.3 99.7c-2.8 1.7-5 5.5-5 8.8l.3 50.5c0 3.3 2.3 7.1 5.1 8.7l43.9 25c1.4.8 3.1 1.2 5 1.2s3.7-.4 5.1-1.3l43.6-25.5c2.8-1.7 5-5.5 5-8.8L161 108c0-3.3-2.3-7.1-5.1-8.7l-43.9-25c-1.4-.9-3.2-1.3-5-1.3z"/></g><path opacity=".7" fill-rule="evenodd" clip-rule="evenodd" fill="url(#c)" d="M78.2 177.5c8-30.9 25.3-69.3 47.3-94.3l-14.3-7.7c-2.4-1.4-6.3-1.3-8.7 0L58.8 101c-2.4 1.4-4.3 4.8-4.3 7.5l.3 50.6c0 2.8 2 6.1 4.4 7.5l19 10.9z"/><path fill-rule="evenodd" clip-rule="evenodd" fill="url(#d)" d="M55 108.5l.3 50.5c0 2.8 2 6.1 4.3 7.4l43.9 25c2.4 1.4 6.3 1.3 8.6 0l43.6-25.5c2.4-1.4 4.3-4.7 4.3-7.5l-.3-50.5c0-2.8-2-6.1-4.3-7.5l-43.9-25c-2.4-1.4-6.3-1.3-8.6 0L59.3 101c-2.4 1.4-4.3 4.8-4.3 7.5zm1 .5c0-2.7 1.9-6 4.2-7.3l42.7-25c2.3-1.4 6.1-1.4 8.4 0l43 24.5c2.3 1.3 4.3 4.6 4.3 7.3l.3 49.5c0 2.7-1.9 6-4.2 7.3l-42.7 25c-2.3 1.4-6.1 1.4-8.4 0l-43-24.5c-2.3-1.3-4.3-4.6-4.3-7.3L56 109z"/><g filter="url(#e)" fill="#fff"><path d="M89.3 156c-3.3 0-6-.6-8.3-1.9-2.2-1.2-4-2.7-5.5-4.4l5.8-6.5c1.2 1.3 2.4 2.4 3.6 3.1 1.2.7 2.6 1.1 4 1.1 1.8 0 3.1-.5 4.1-1.6 1-1.1 1.5-2.9 1.5-5.3v-27.1h9.5v27.5c0 2.5-.3 4.7-1 6.5-.7 1.8-1.7 3.4-2.9 4.7-1.3 1.3-2.9 2.3-4.7 2.9-1.7.7-3.8 1-6.1 1zM128.6 156c-3.2 0-6.3-.6-9.4-1.6-3.1-1.1-5.9-2.8-8.4-5.1l5.5-6.5c1.9 1.6 3.9 2.8 5.9 3.7 2 .9 4.2 1.4 6.6 1.4 1.9 0 3.4-.3 4.5-1s1.6-1.7 1.6-2.9v-.1c0-.6-.1-1.1-.3-1.6-.2-.5-.6-.9-1.3-1.3-.6-.4-1.5-.8-2.6-1.2-1.1-.4-2.5-.8-4.3-1.3-2.1-.5-4.1-1.1-5.8-1.7-1.7-.6-3.2-1.4-4.4-2.4-1.2-.9-2.1-2.1-2.8-3.5-.7-1.4-1-3.1-1-5.2v-.1c0-1.9.4-3.6 1.1-5.2.7-1.5 1.7-2.9 3-4s2.8-2 4.6-2.6c1.8-.6 3.8-.9 5.9-.9 3.1 0 5.9.5 8.5 1.4 2.6.9 5 2.2 7.1 4l-4.8 7c-1.9-1.3-3.7-2.3-5.5-3-1.8-.7-3.6-1.1-5.4-1.1-1.8 0-3.1.4-4 1-.9.7-1.4 1.6-1.4 2.6v.1c0 .7.1 1.3.4 1.8.3.5.7 1 1.4 1.4.7.4 1.6.8 2.8 1.1s2.7.8 4.5 1.3c2.1.6 4 1.2 5.7 1.9 1.7.7 3.1 1.5 4.2 2.5s2 2.1 2.6 3.5c.6 1.3.9 2.9.9 4.7v.1c0 2.1-.4 3.9-1.1 5.5-.8 1.6-1.8 3-3.2 4.1-1.4 1.1-3 1.9-4.8 2.5-1.9.4-4 .7-6.3.7z"/></g><g fill="#575747"><path d="M53.2 52.9c-2.6-2.6-3.9-5.8-3.9-9.7 0-3.8 1.3-7 3.9-9.6 2.6-2.6 5.8-3.9 9.6-3.9 3.9 0 7.2 1.2 10 3.6l-3.6 4c-1.8-1.4-4-2.2-6.3-2.2-2.4 0-4.4.8-5.9 2.3-1.5 1.5-2.2 3.4-2.2 5.8 0 2.5.8 4.5 2.3 6 1.5 1.5 3.5 2.2 5.9 2.2 2.4 0 4.5-.7 6.3-2.1l3.6 4c-2.8 2.4-6.1 3.6-10 3.6-3.9-.1-7.1-1.4-9.7-4zM78.6 56.8V29.7H84v10.8h12.6V29.7h5.4v27.1h-5.4V45.6H84v11.2h-5.4zM110.3 33.2h-.2c-.8 0-1.5-.2-2-.7-.5-.5-.7-1.1-.7-1.8s.2-1.3.7-1.8c.5-.5 1.1-.7 2-.7.9 0 1.5.2 2 .7.5.5.7 1.1.7 1.8v.1c0 2.9-1.2 5-3.6 6.2l-.9-1.6c1-.4 1.6-1.2 2-2.2zM141.4 29.7v5.1h-9v22H127v-22h-9v-5.1h23.4zM145.4 29.7h5.4v27.1h-5.4V29.7z"/></g></g></svg>