<svg xmlns:dc="http://purl.org/dc/elements/1.1/" xmlns:cc="http://creativecommons.org/ns#" xmlns:rdf="http://www.w3.org/1999/02/22-rdf-syntax-ns#" xmlns:svg="http://www.w3.org/2000/svg" xmlns="http://www.w3.org/2000/svg" version="1.1" width="131" height="120">
  <path d="M 104 29.4 C 106.1 18.7 104.9 10.5 99.9 7.3 98.2 6.2 96.2 5.7 94 5.8 81.9 6.3 62.3 23 46.3 47.6 27.4 76.8 20.6 106 31.3 112.9 c 5.1 3.3 13.1 1 22.2 -5.5" style="fill:none;stroke:#727272;stroke-width:5;stroke-linecap:round"/>
  <path d="m 113.7 77.2 c 9 -3.5 14.5 -8.3 14.8 -13.8 0.7 -12.7 -26.9 -24.4 -61.7 -26.2 -3.3 -0.2 -6.5 -0.3 -9.6 -0.2 -30.3 0.1 -53.9 8.4 -54.5 19.9 -0.3 5.5 4.7 10.8 13.2 15.2" style="fill:none;stroke:#727272;stroke-width:5;stroke-linecap:round"/>
  <path d="M 57 10.5 C 50.8 5.4 45.1 2.7 40.4 3 39.2 3.1 38.1 3.4 37 4 25.7 9.7 29.3 39.6 45.1 70.6 c 15.8 31 37.8 51.5 49.1 45.7 10.9 -5.5 7.9 -33.3 -6.3 -63" style="fill:none;stroke:#727272;stroke-width:5;stroke-linecap:round"/>
  <path d="m 73.5 61 a 7.5 7.5 0 0 1 -15 0 7.5 7.5 0 1 1 15 0 z" style="fill:#00BAD2"/>
</svg>
