<svg id="artwork" xmlns="http://www.w3.org/2000/svg" width="1440" height="536.8" viewBox="0 0 1440 536.8"><style>.st0{stroke-linejoin:round}.st0,.st1,.st2,.st3,.st4{fill:none;stroke:#79b8ff;stroke-width:2;stroke-linecap:round;stroke-miterlimit:10}.st2,.st3,.st4{stroke:#e5e7ea;stroke-width:4}.st3,.st4{stroke:#2088ff}.st4{stroke:#ffea7f}.st5{stroke:#e5e7ea}.st5,.st6,.st7{fill:none;stroke-width:4;stroke-miterlimit:10}.st6{stroke-linecap:round;stroke:#84e89e}.st7{stroke:#34d058}.st8{stroke:#ffdf5c;stroke-linecap:round}.st10,.st8,.st9{fill:none;stroke-width:4;stroke-miterlimit:10}.st9{stroke-linecap:round;stroke:#34d058}.st10{stroke:#79b8ff}.st10,.st11,.st12{stroke-linecap:round}.st11{fill:none;stroke-width:4;stroke-miterlimit:10;stroke:#fb8532}.st12{stroke:#8a64d2}.st12,.st13,.st14{fill:none;stroke-width:4;stroke-miterlimit:10}.st13{stroke-linecap:round;stroke:#5a32a3}.st14{stroke:#0366d6}.st14,.st15,.st16{stroke-linecap:round}.st15{fill:none;stroke-width:4;stroke-miterlimit:10;stroke:#6f42c1}.st16{stroke:#ffab70}.st16,.st17,.st18{fill:none;stroke-width:4;stroke-miterlimit:10}.st17{stroke-linecap:round;stroke:#ffd33d}.st18{stroke:#f66a09}.st18,.st19,.st20,.st21{stroke-linecap:round}.st19{fill:none;stroke:#28a745;stroke-miterlimit:10;stroke-width:4}.st20,.st21{stroke-width:3}.st20{fill:none;stroke-miterlimit:10;stroke:#24292e}.st21{stroke:#ea4a5a;stroke-linejoin:round}.st21,.st22,.st23{fill:none;stroke-miterlimit:10}.st22{stroke-linecap:round;stroke-linejoin:round;stroke:#34d058;stroke-width:3}.st23{stroke:#d1d5da;stroke-width:4}.st24{stroke:#ffd33d;stroke-linejoin:round}.st24,.st25,.st26,.st27{fill:none;stroke-width:3;stroke-linecap:round;stroke-miterlimit:10}.st25{stroke-linejoin:round;stroke:#ffdf5c}.st26,.st27{stroke:#f9c512}.st27{stroke:#8a64d2}.st28{fill:#34d058}.st29,.st30{fill:none;stroke:#2088ff;stroke-width:2;stroke-linecap:round;stroke-miterlimit:10}.st30{stroke-linejoin:round}.st31{fill:#2088ff}.st32{fill:none;stroke:#79b8ff;stroke-width:2;stroke-miterlimit:10}.st33,.st34,.st35{fill:none;stroke:#2088ff;stroke-width:2}.st33{stroke-miterlimit:10}.st34,.st35{stroke-linecap:round;stroke-linejoin:round}.st35{stroke-dasharray:2.4434,3.6199}.st36{opacity:.1}.st37{fill:none;stroke:#79b8ff;stroke-width:2;stroke-linecap:round;stroke-linejoin:round}.st38{fill:#79b8ff}</style><path class="st20" d="M148.6 158.2H67.8M171.4 177.9v99.5c0 10.4 8.4 18.8 18.8 18.8h39c10.4 0 18.8-8.4 18.8-18.8V106.9c0-10.4 8.4-18.8 18.8-18.8h7.9M1330.5 369.2V227.9c0-10.4-8.4-18.8-18.8-18.8h-45.6c-10.4 0-18.8-8.4-18.8-18.8v-9.8M1445.4 452.4h-95.6c-10.4 0-18.8-8.4-18.8-18.8v-22.8M171.4 136.1V66.3c0-10.4-8.4-18.8-18.8-18.8h-34.4c-10.4 0-18.8-8.4-18.8-18.8v-4.3M99.4 322.5v-77.7c0-10.4 8.4-18.8 18.8-18.8h34.4c10.4 0 18.8-8.4 18.8-18.8V203M1309.5 31.2l-76.3-.2c-10.4 0-18.8-8.4-18.7-18.8l.1-27.1c0-10.4-8.4-18.8-18.7-18.8h-4.3"/><path class="st20" d="M-20.9-178.3h42.5c10.4 0 18.8 8.4 18.8 18.8v51.7c0 10.4 8.4 18.8 18.8 18.8h93.4c10.4 0 18.8 8.4 18.8 18.8V137.2M1352 31.2h14.3c10.4 0 18.8 8.4 18.8 18.8v115.6c0 10.4 8.4 18.8 18.8 18.8h41.3M41.5 108.1v14.3c0 10.4-8.4 18.8-18.8 18.8H-2.9M1247.3 139.3v-14c0-10.4-8.4-18.8-18.8-18.8h-103.7"/><path class="st20" d="M100.5-19.3c0-10.4-8.4-18.8-18.8-18.8H60.1c-10.4 0-18.8 8.4-18.8 18.8v86.5M1330.5 227.9V51.7M1151.9 106.5c10.4 0 18.8-8.4 18.8-18.8V-12.7M284.8 102h21.7c1.6 0 3-1.3 3-3V77.3c0-1.6-1.4-3-3-3h-21.7c-1.6 0-3 1.4-3 3V99c0 1.7 1.3 3 3 3zM160.5 172h21.7c1.6 0 3-1.4 3-3v-21.7c0-1.7-1.4-3-3-3h-21.7c-1.6 0-3 1.3-3 3V169c0 1.7 1.4 3 3 3zM30.7 102h21.7c1.7 0 3-1.3 3-3V77.3c0-1.6-1.3-3-3-3H30.7c-1.6 0-3 1.4-3 3V99c0 1.7 1.3 3 3 3z"/><path class="st20" d="M88.5 17h21.7c1.7 0 3-1.4 3-3V-7.7c0-1.7-1.3-3-3-3H88.5c-1.7 0-3 1.3-3 3V14c0 1.7 1.4 3 3 3zM88.5 358.4h21.7c1.7 0 3-1.4 3-3v-21.7c0-1.7-1.3-3-3-3H88.5c-1.7 0-3 1.3-3 3v21.7c0 1.6 1.4 3 3 3zM1319.6 376.3h21.7c1.7 0 3 1.4 3 3V401c0 1.6-1.3 3-3 3h-21.7c-1.7 0-3-1.4-3-3v-21.7c0-1.6 1.4-3 3-3zM1319.6 17.3h21.7c1.7 0 3 1.4 3 3V42c0 1.7-1.3 3-3 3h-21.7c-1.7 0-3-1.3-3-3V20.3c0-1.6 1.4-3 3-3zM1236.5 173.5h21.7c1.7 0 3-1.3 3-3v-21.7c0-1.7-1.3-3-3-3h-21.7c-1.7 0-3 1.3-3 3v21.7c0 1.6 1.3 3 3 3zM129.3 177.8H91.5M209.9 158.2h-16.5M121.8 295.5h-9.6M88.9 295.5H70.7M74.3 334.7H33.1M85.2 373.9H40M247 373.9h-91.4M176 354.3h-51.5M70 354.3H57.6M207.5 354.3h-12.4M1151.9 86.9h-17.3M1270.5 86.9h-79M1307.4 145.8h-29.7M1367.3 145.7H1342M1446.1 165.7h-44.2M1446.1 146.1h-28.5M1317.5 126.1h-54.1M1226.1 67.3h-23.7M1254.5 67.3h-12.2M129.3 158.2c-10.4 0-18.8 8.4-18.8 18.8M1282.8 256.6h-52.5M1267.9 276.2h47.7M1346.6 276.2h58.8M1391.7 295.8h-36.2M1366.4 315.4h-13.9M1312.4 256.6h-13.9M1290.4 393.6h10.6M1311.6 413.2h-74.4M1394.3 413.2H1364M1306.3 432.8h-33.2M1372.4 432.8h-23.8M1439.8 432.8h-51.6M1211.1 67.3l19.5 19.6M1369.4 295.7l19.6-19.5M161 86.9h-36.5M128 67.3H74.6M158.3 67.3h-18.7M238 67.3h-56.6M210.9 47.5h-21.4M155.6 27.9h-34.7M1282.6 127c0 10.4 8.4 18.8 18.8 18.8M464.1-102.4v74.1c0 10.4-8.4 18.8-18.8 18.8H314.4c-10.4 0-18.8 8.4-18.8 18.8v57.2M99.3 366.5l.1 55.7c0 10.4-8.4 18.8-18.8 18.8H-1.5M1093.8 120.4h21.7c1.7 0 3-1.3 3-3V95.7c0-1.7-1.3-3-3-3h-21.7c-1.7 0-3 1.3-3 3v21.7c0 1.7 1.3 3 3 3z"/></svg>